<?xml version="1.0" encoding="iso-8859-1"?>
<!-- Generator: Adobe Illustrator 19.0.0, SVG Export Plug-In . SVG Version: 6.00 Build 0)  -->
<svg version="1.1" id="Capa_1" xmlns="http://www.w3.org/2000/svg" xmlns:xlink="http://www.w3.org/1999/xlink" x="0px" y="0px"
	 viewBox="0 0 512 512" style="enable-background:new 0 0 512 512;" xml:space="preserve">
<g>
	<g>
		<path d="M256,151c-57.897,0-105,47.103-105,105c0,57.897,47.103,105,105,105c57.897,0,105-47.103,105-105
			C361,198.103,313.897,151,256,151z"/>
	</g>
</g>
<g>
	<g>
		<path d="M467,196h-75v120h75c24.813,0,45-20.187,45-45v-30C512,216.187,491.813,196,467,196z"/>
	</g>
</g>
<g>
	<g>
		<path d="M45,196c-24.813,0-45,20.187-45,45v30c0,24.813,20.187,45,45,45h75V196H45z"/>
	</g>
</g>
<g>
	<g>
		<path d="M196,392v75c0,24.813,20.187,45,45,45h30c24.813,0,45-20.187,45-45v-75H196z"/>
	</g>
</g>
<g>
	<g>
		<path d="M271,0h-30c-24.813,0-45,20.187-45,45v75h120V45C316,20.187,295.813,0,271,0z"/>
	</g>
</g>
<g>
</g>
<g>
</g>
<g>
</g>
<g>
</g>
<g>
</g>
<g>
</g>
<g>
</g>
<g>
</g>
<g>
</g>
<g>
</g>
<g>
</g>
<g>
</g>
<g>
</g>
<g>
</g>
<g>
</g>
</svg>
