<?xml version="1.0" encoding="iso-8859-1"?>
<!-- Generator: Adobe Illustrator 19.0.0, SVG Export Plug-In . SVG Version: 6.00 Build 0)  -->
<svg version="1.1" id="Capa_1" xmlns="http://www.w3.org/2000/svg" xmlns:xlink="http://www.w3.org/1999/xlink" x="0px" y="0px"
	 viewBox="0 0 512 512" style="enable-background:new 0 0 512 512;" xml:space="preserve">
<g>
	<g>
		<path d="M81,0v116.712l11.362,2.84c53.526,13.382,108.582,20.073,163.638,20.073c55.056,0,110.111-6.691,163.638-20.073
			l11.362-2.84V0H81z M256,90c-11.046,0-20-8.954-20-20s8.954-20,20-20s20,8.954,20,20S267.046,90,256,90z"/>
	</g>
</g>
<g>
	<g>
		<path d="M411.595,318.032l-35.27-158.716c-39.62,6.842-79.909,10.309-120.325,10.309s-80.704-3.467-120.325-10.309l-35.27,158.717
			c-10.544,47.445,0.852,96.4,31.263,134.312C162.08,490.256,207.397,512,256,512c48.603,0,93.92-21.744,124.332-59.656
			C410.743,414.432,422.139,365.477,411.595,318.032z M256,437c-44.183,0-80-44.771-80-100s35.817-100,80-100s80,44.771,80,100
			S300.183,437,256,437z"/>
	</g>
</g>
<g>
</g>
<g>
</g>
<g>
</g>
<g>
</g>
<g>
</g>
<g>
</g>
<g>
</g>
<g>
</g>
<g>
</g>
<g>
</g>
<g>
</g>
<g>
</g>
<g>
</g>
<g>
</g>
<g>
</g>
</svg>
