<?xml version="1.0" encoding="iso-8859-1"?>
<!-- Generator: Adobe Illustrator 19.0.0, SVG Export Plug-In . SVG Version: 6.00 Build 0)  -->
<svg version="1.1" id="Capa_1" xmlns="http://www.w3.org/2000/svg" xmlns:xlink="http://www.w3.org/1999/xlink" x="0px" y="0px"
	 viewBox="0 0 512 512" style="enable-background:new 0 0 512 512;" xml:space="preserve">
<g>
	<g>
		<path d="M151,91c-33.084,0-60,26.916-60,60s26.916,60,60,60s60-26.916,60-60S184.084,91,151,91z"/>
	</g>
</g>
<g>
	<g>
		<path d="M151,301c-16.542,0-30,13.458-30,30s13.458,30,30,30s30-13.458,30-30S167.542,301,151,301z"/>
	</g>
</g>
<g>
	<g>
		<path d="M361,301c-33.084,0-60,26.916-60,60s26.916,60,60,60s60-26.916,60-60S394.084,301,361,301z M361,381
			c-11.046,0-20-8.954-20-20c0-11.046,8.954-20,20-20c11.046,0,20,8.954,20,20C381,372.046,372.046,381,361,381z"/>
	</g>
</g>
<g>
	<g>
		<path d="M361,91c-33.084,0-60,26.916-60,60s26.916,60,60,60s60-26.916,60-60S394.084,91,361,91z M361,171
			c-11.046,0-20-8.954-20-20s8.954-20,20-20c11.046,0,20,8.954,20,20S372.046,171,361,171z"/>
	</g>
</g>
<g>
	<g>
		<path d="M0,0v512h512V0H0z M80,456c-11.046,0-20-8.954-20-20c0-11.046,8.954-20,20-20s20,8.954,20,20
			C100,447.046,91.046,456,80,456z M150,456c-11.046,0-20-8.954-20-20c0-11.046,8.954-20,20-20s20,8.954,20,20
			C170,447.046,161.046,456,150,456z M151,391c-33.084,0-60-26.916-60-60s26.916-60,60-60s60,26.916,60,60S184.084,391,151,391z
			 M220,456c-11.046,0-20-8.954-20-20c0-11.046,8.954-20,20-20s20,8.954,20,20C240,447.046,231.046,456,220,456z M151,241
			c-49.626,0-90-40.374-90-90c0-49.626,40.374-90,90-90c49.626,0,90,40.374,90,90S200.626,241,151,241z M361,451
			c-49.626,0-90-40.374-90-90c0-49.626,40.374-90,90-90c49.626,0,90,40.374,90,90C451,410.626,410.626,451,361,451z M361,241
			c-49.626,0-90-40.374-90-90c0-49.626,40.374-90,90-90c49.626,0,90,40.374,90,90S410.626,241,361,241z"/>
	</g>
</g>
<g>
</g>
<g>
</g>
<g>
</g>
<g>
</g>
<g>
</g>
<g>
</g>
<g>
</g>
<g>
</g>
<g>
</g>
<g>
</g>
<g>
</g>
<g>
</g>
<g>
</g>
<g>
</g>
<g>
</g>
</svg>
