<?xml version="1.0" encoding="iso-8859-1"?>
<!-- Generator: Adobe Illustrator 19.0.0, SVG Export Plug-In . SVG Version: 6.00 Build 0)  -->
<svg version="1.1" id="Capa_1" xmlns="http://www.w3.org/2000/svg" xmlns:xlink="http://www.w3.org/1999/xlink" x="0px" y="0px"
	 viewBox="0 0 512 512" style="enable-background:new 0 0 512 512;" xml:space="preserve">
<g>
	<g>
		<path d="M377,150H271v56h-30v-56H135c-24.813,0-45,20.187-45,45v172c0,24.813,20.187,45,45,45h242c24.813,0,45-20.187,45-45V195
			C422,170.187,401.813,150,377,150z M256,276c-11.046,0-20-8.954-20-20c0-11.046,8.954-20,20-20s20,8.954,20,20
			S267.046,276,256,276z"/>
	</g>
</g>
<g>
	<g>
		<path d="M0,0v512h512V0H0z M452,367c0,41.355-33.645,75-75,75H135c-41.355,0-75-33.645-75-75V195c0-41.355,33.645-75,75-75h78.58
			c-1.666-4.694-2.58-9.741-2.58-15c0-24.813,20.187-45,45-45s45,20.187,45,45c0,5.259-0.914,10.306-2.58,15H377
			c41.355,0,75,33.645,75,75V367z"/>
	</g>
</g>
<g>
</g>
<g>
</g>
<g>
</g>
<g>
</g>
<g>
</g>
<g>
</g>
<g>
</g>
<g>
</g>
<g>
</g>
<g>
</g>
<g>
</g>
<g>
</g>
<g>
</g>
<g>
</g>
<g>
</g>
</svg>
