<?xml version="1.0" encoding="iso-8859-1"?>
<!-- Generator: Adobe Illustrator 19.0.0, SVG Export Plug-In . SVG Version: 6.00 Build 0)  -->
<svg version="1.1" id="Capa_1" xmlns="http://www.w3.org/2000/svg" xmlns:xlink="http://www.w3.org/1999/xlink" x="0px" y="0px"
	 viewBox="0 0 512 512" style="enable-background:new 0 0 512 512;" xml:space="preserve">
<g>
	<g>
		<path d="M125,55.5c-68.925,0-125,56.075-125,125c0,44.583,23.466,83.782,58.69,105.914l52.733-112.29l27.154,12.752
			l-52.751,112.33c12.328,4.079,25.497,6.294,39.174,6.294c68.925,0,125-56.075,125-125S193.925,55.5,125,55.5z"/>
	</g>
</g>
<g>
	<g>
		<path d="M417,266.5c-28.706,0-55.677,12.948-73.65,35H292v45H65.977c-0.424-0.732-0.876-1.445-1.358-2.136l21.207-45.159
			c-9.612-3.18-18.71-7.497-27.136-12.792l-21.227,45.2C22.083,332.904,10,345.787,10,361.5c0,16.569,13.431,30,30,30
			c11.102,0,20.789-6.036,25.977-15H292v45h51.35c17.973,22.052,44.944,35,73.65,35c52.383,0,95-42.617,95-95
			S469.383,266.5,417,266.5z"/>
	</g>
</g>
<g>
</g>
<g>
</g>
<g>
</g>
<g>
</g>
<g>
</g>
<g>
</g>
<g>
</g>
<g>
</g>
<g>
</g>
<g>
</g>
<g>
</g>
<g>
</g>
<g>
</g>
<g>
</g>
<g>
</g>
</svg>
