<?xml version="1.0" encoding="iso-8859-1"?>
<!-- Generator: Adobe Illustrator 19.0.0, SVG Export Plug-In . SVG Version: 6.00 Build 0)  -->
<svg version="1.1" id="Capa_1" xmlns="http://www.w3.org/2000/svg" xmlns:xlink="http://www.w3.org/1999/xlink" x="0px" y="0px"
	 viewBox="0 0 512 512" style="enable-background:new 0 0 512 512;" xml:space="preserve">
<g>
	<g>
		<path d="M338.6,154.931C316.809,126.602,287.474,111,256,111s-60.809,15.602-82.6,43.931C152.507,182.092,141,217.986,141,256
			c0,38.014,11.507,73.908,32.4,101.069C195.191,385.398,224.526,401,256,401s60.809-15.602,82.6-43.931
			C359.493,329.908,371,294.014,371,256C371,217.986,359.493,182.092,338.6,154.931z"/>
	</g>
</g>
<g>
	<g>
		<path d="M422.993,142.117c-22.074-5.496-44.406-9.861-66.886-13.135c2.142,2.468,4.238,5.013,6.272,7.658h-0.001
			C387.284,169.016,401,211.406,401,256s-13.716,86.984-38.622,119.361c-2.034,2.645-4.13,5.19-6.272,7.658
			c22.481-3.274,44.813-7.64,66.888-13.136C475.399,356.835,512,310.005,512,256S475.399,155.165,422.993,142.117z"/>
	</g>
</g>
<g>
	<g>
		<path d="M111,256c0-44.594,13.716-86.984,38.622-119.361c2.034-2.644,4.13-5.19,6.272-7.658
			c-22.481,3.275-44.813,7.64-66.888,13.136C36.601,155.165,0,201.995,0,256s36.601,100.835,89.007,113.883
			c22.074,5.496,44.406,9.861,66.886,13.136c-2.142-2.468-4.238-5.014-6.272-7.658C124.716,342.984,111,300.594,111,256z"/>
	</g>
</g>
<g>
</g>
<g>
</g>
<g>
</g>
<g>
</g>
<g>
</g>
<g>
</g>
<g>
</g>
<g>
</g>
<g>
</g>
<g>
</g>
<g>
</g>
<g>
</g>
<g>
</g>
<g>
</g>
<g>
</g>
</svg>
