<?xml version="1.0" encoding="iso-8859-1"?>
<!-- Generator: Adobe Illustrator 19.0.0, SVG Export Plug-In . SVG Version: 6.00 Build 0)  -->
<svg version="1.1" id="Capa_1" xmlns="http://www.w3.org/2000/svg" xmlns:xlink="http://www.w3.org/1999/xlink" x="0px" y="0px"
	 viewBox="0 0 511.999 511.999" style="enable-background:new 0 0 511.999 511.999;" xml:space="preserve">
<g>
	<g>
		<path d="M383.999,34.297H128L0,256l128,221.702h256l128-221.702L383.999,34.297z M349.267,64.377h17.366l8.683,15.04
			l-84.797,146.872l-26.049-15.04L349.267,64.377z M145.366,64.377h17.366l84.797,146.872l-26.049,15.04L136.683,79.417
			L145.366,64.377z M43.416,271.039L34.733,256l8.683-15.04h169.593v30.08H43.416z M162.733,447.623h-17.366l-8.683-15.04
			l84.797-146.872l26.049,15.04L162.733,447.623z M235.946,256c0-11.075,8.978-20.053,20.053-20.053
			c11.075,0,20.053,8.978,20.053,20.053c0,11.075-8.978,20.053-20.053,20.053C244.924,276.053,235.946,267.075,235.946,256z
			 M366.633,447.623h-17.366L264.47,300.751l26.049-15.04l84.797,146.872L366.633,447.623z M298.991,271.039v-30.08h169.593
			l8.683,15.04l-8.683,15.04H298.991z"/>
	</g>
</g>
<g>
</g>
<g>
</g>
<g>
</g>
<g>
</g>
<g>
</g>
<g>
</g>
<g>
</g>
<g>
</g>
<g>
</g>
<g>
</g>
<g>
</g>
<g>
</g>
<g>
</g>
<g>
</g>
<g>
</g>
</svg>
