<?xml version="1.0" encoding="iso-8859-1"?>
<!-- Generator: Adobe Illustrator 19.0.0, SVG Export Plug-In . SVG Version: 6.00 Build 0)  -->
<svg version="1.1" id="Capa_1" xmlns="http://www.w3.org/2000/svg" xmlns:xlink="http://www.w3.org/1999/xlink" x="0px" y="0px"
	 viewBox="0 0 512 512" style="enable-background:new 0 0 512 512;" xml:space="preserve">
<g>
	<g>
		<polygon points="286,452 286,392 226,392 226,452 196,452 196,512 316,512 316,452 		"/>
	</g>
</g>
<g>
	<g>
		<path d="M331,0v75c0,24.813-20.187,45-45,45V75h-60v45c-24.813,0-45-20.187-45-45V0h-30v75c0,41.355,33.645,75,75,75v45h15v75h-30
			v-30h-30v60h60v62h30v-62h30v30h30v-60h-60v-75h15v-45c41.355,0,75-33.645,75-75V0H331z"/>
	</g>
</g>
<g>
	<g>
		<rect x="121" y="422" width="75" height="30"/>
	</g>
</g>
<g>
	<g>
		<rect x="316" y="422" width="75" height="30"/>
	</g>
</g>
<g>
</g>
<g>
</g>
<g>
</g>
<g>
</g>
<g>
</g>
<g>
</g>
<g>
</g>
<g>
</g>
<g>
</g>
<g>
</g>
<g>
</g>
<g>
</g>
<g>
</g>
<g>
</g>
<g>
</g>
</svg>
