<?xml version="1.0" encoding="iso-8859-1"?>
<!-- Generator: Adobe Illustrator 19.0.0, SVG Export Plug-In . SVG Version: 6.00 Build 0)  -->
<svg version="1.1" id="Capa_1" xmlns="http://www.w3.org/2000/svg" xmlns:xlink="http://www.w3.org/1999/xlink" x="0px" y="0px"
	 viewBox="0 0 512 512" style="enable-background:new 0 0 512 512;" xml:space="preserve">
<g>
	<g>
		<rect y="161" width="512" height="190"/>
	</g>
</g>
<g>
	<g>
		<path d="M321,11H191c-24.813,0-45,20.187-45,45v40h30V56c0-8.271,6.729-15,15-15h15v90h100V41h15c8.271,0,15,6.729,15,15v40h30V56
			C366,31.187,345.813,11,321,11z"/>
	</g>
</g>
<g>
	<g>
		<path d="M462.529,446.238L448.032,381H303.968l-14.497,65.238c-2.978,13.395,0.239,27.216,8.825,37.919S319.677,501,333.398,501
			h85.203c13.722,0,26.517-6.139,35.103-16.843S465.507,459.632,462.529,446.238z"/>
	</g>
</g>
<g>
	<g>
		<path d="M222.529,446.238L208.032,381H63.968l-14.497,65.238c-2.978,13.395,0.239,27.216,8.825,37.919S79.677,501,93.398,501
			h85.203c13.722,0,26.517-6.139,35.103-16.843S225.507,459.632,222.529,446.238z"/>
	</g>
</g>
<g>
</g>
<g>
</g>
<g>
</g>
<g>
</g>
<g>
</g>
<g>
</g>
<g>
</g>
<g>
</g>
<g>
</g>
<g>
</g>
<g>
</g>
<g>
</g>
<g>
</g>
<g>
</g>
<g>
</g>
</svg>
