<?xml version="1.0" encoding="iso-8859-1"?>
<!-- Generator: Adobe Illustrator 19.0.0, SVG Export Plug-In . SVG Version: 6.00 Build 0)  -->
<svg version="1.1" id="Capa_1" xmlns="http://www.w3.org/2000/svg" xmlns:xlink="http://www.w3.org/1999/xlink" x="0px" y="0px"
	 viewBox="0 0 512 512" style="enable-background:new 0 0 512 512;" xml:space="preserve">
<g>
	<g>
		<path d="M382,131H130C58.318,131,0,189.318,0,261v58.281h60v5C60,355.556,85.444,381,116.719,381h278.563
			C426.556,381,452,355.556,452,324.281v-5h60V261C512,189.318,453.682,131,382,131z M176,306c-11.046,0-20-8.954-20-20
			c0-11.046,8.954-20,20-20s20,8.954,20,20C196,297.046,187.046,306,176,306z M336,306c-11.046,0-20-8.954-20-20
			c0-11.046,8.954-20,20-20c11.046,0,20,8.954,20,20C356,297.046,347.046,306,336,306z M482,289.281h-30V261
			c0-38.598-31.402-70-70-70H130c-38.598,0-70,31.402-70,70v28.281H30V261c0-55.14,44.86-100,100-100h252c55.14,0,100,44.86,100,100
			V289.281z"/>
	</g>
</g>
<g>
</g>
<g>
</g>
<g>
</g>
<g>
</g>
<g>
</g>
<g>
</g>
<g>
</g>
<g>
</g>
<g>
</g>
<g>
</g>
<g>
</g>
<g>
</g>
<g>
</g>
<g>
</g>
<g>
</g>
</svg>
