<?xml version="1.0" encoding="iso-8859-1"?>
<!-- Generator: Adobe Illustrator 19.0.0, SVG Export Plug-In . SVG Version: 6.00 Build 0)  -->
<svg version="1.1" id="Capa_1" xmlns="http://www.w3.org/2000/svg" xmlns:xlink="http://www.w3.org/1999/xlink" x="0px" y="0px"
	 viewBox="0 0 512 512" style="enable-background:new 0 0 512 512;" xml:space="preserve">
<g>
	<g>
		<path d="M409.869,452.257L391.175,218.59l28.675-96.541c8.622-29.027,3.182-59.593-14.927-83.862
			C386.815,13.919,359.063,0,328.783,0H183.217c-30.28,0-58.032,13.919-76.141,38.188C88.968,62.457,83.527,93.023,92.149,122.05
			l28.675,96.541l-18.693,233.666C87.392,454.156,76,466.743,76,482c0,16.569,13.431,30,30,30c16.569,0,30-13.431,30-30h240
			c0,16.569,13.431,30,30,30c16.569,0,30-13.431,30-30C436,466.743,424.608,454.156,409.869,452.257z M147.193,202l-26.285-88.492
			c-5.9-19.861-2.177-40.774,10.213-57.38c12.229-16.389,30.89-25.862,51.294-26.105L199.442,202H147.193z M282.412,202h-52.824
			l-17.03-172h86.884L282.412,202z M364.808,202h-52.249l17.027-171.977c20.404,0.244,39.065,9.716,51.293,26.105
			c12.39,16.605,16.112,37.519,10.213,57.379L364.808,202z"/>
	</g>
</g>
<g>
</g>
<g>
</g>
<g>
</g>
<g>
</g>
<g>
</g>
<g>
</g>
<g>
</g>
<g>
</g>
<g>
</g>
<g>
</g>
<g>
</g>
<g>
</g>
<g>
</g>
<g>
</g>
<g>
</g>
</svg>
