<?xml version="1.0" encoding="iso-8859-1"?>
<!-- Generator: Adobe Illustrator 19.0.0, SVG Export Plug-In . SVG Version: 6.00 Build 0)  -->
<svg version="1.1" id="Capa_1" xmlns="http://www.w3.org/2000/svg" xmlns:xlink="http://www.w3.org/1999/xlink" x="0px" y="0px"
	 viewBox="0 0 512 512" style="enable-background:new 0 0 512 512;" xml:space="preserve">
<g>
	<g>
		<rect y="151" width="512" height="210"/>
	</g>
</g>
<g>
	<g>
		<path d="M453.704,17.843C445.118,7.139,432.323,1,418.602,1h-85.203c-13.722,0-26.517,6.139-35.103,16.843
			c-8.586,10.704-11.803,24.525-8.825,37.919L303.968,121h144.064l14.497-65.238C465.507,42.367,462.29,28.546,453.704,17.843z
			 M361,91h-32.968l-9.276-41.747c-0.992-4.464,0.08-9.071,2.941-12.639C324.56,33.046,328.824,31,333.398,31H361V91z
			 M433.244,49.254L423.968,91H391V31h27.602c4.574,0,8.838,2.046,11.701,5.614C433.164,40.182,434.237,44.789,433.244,49.254z"/>
	</g>
</g>
<g>
	<g>
		<path d="M213.703,17.843C205.118,7.139,192.323,1,178.602,1H93.398C79.677,1,66.882,7.139,58.296,17.843
			C49.71,28.546,46.493,42.367,49.47,55.762L63.967,121h144.065l14.497-65.238C225.506,42.367,222.289,28.546,213.703,17.843z
			 M121,91H88.033l-9.277-41.746c-0.993-4.465,0.079-9.072,2.942-12.64C84.56,33.046,88.824,31,93.398,31H121V91z M193.244,49.254
			L183.967,91H151V31h27.602c4.574,0,8.838,2.046,11.7,5.614S194.237,44.789,193.244,49.254z"/>
	</g>
</g>
<g>
	<g>
		<path d="M462.529,456.238L448.032,391H303.968l-14.497,65.238c-2.978,13.395,0.239,27.216,8.825,37.919
			C306.882,504.861,319.677,511,333.398,511h85.203c13.722,0,26.517-6.139,35.103-16.843S465.507,469.632,462.529,456.238z M361,481
			h-27.602c-4.574,0-8.838-2.046-11.701-5.614c-2.861-3.568-3.934-8.175-2.941-12.64L328.032,421H361V481z M430.303,475.386
			c-2.862,3.568-7.127,5.614-11.701,5.614H391v-60h32.968l9.276,41.747C434.236,467.211,433.164,471.818,430.303,475.386z"/>
	</g>
</g>
<g>
	<g>
		<path d="M222.529,456.238L208.033,391H63.967L49.47,456.238c-2.977,13.395,0.24,27.216,8.826,37.919
			C66.882,504.861,79.677,511,93.398,511h85.203c13.722,0,26.516-6.139,35.102-16.843
			C222.289,483.454,225.506,469.633,222.529,456.238z M121,481H93.398c-4.574,0-8.838-2.046-11.7-5.614s-3.935-8.175-2.942-12.64
			L88.033,421H121V481z M190.302,475.386c-2.862,3.568-7.126,5.614-11.701,5.614H151v-60h32.967l9.277,41.746
			C194.237,467.211,193.165,471.818,190.302,475.386z"/>
	</g>
</g>
<g>
</g>
<g>
</g>
<g>
</g>
<g>
</g>
<g>
</g>
<g>
</g>
<g>
</g>
<g>
</g>
<g>
</g>
<g>
</g>
<g>
</g>
<g>
</g>
<g>
</g>
<g>
</g>
<g>
</g>
</svg>
