<?xml version="1.0" encoding="iso-8859-1"?>
<!-- Generator: Adobe Illustrator 19.0.0, SVG Export Plug-In . SVG Version: 6.00 Build 0)  -->
<svg version="1.1" id="Capa_1" xmlns="http://www.w3.org/2000/svg" xmlns:xlink="http://www.w3.org/1999/xlink" x="0px" y="0px"
	 viewBox="0 0 512 512" style="enable-background:new 0 0 512 512;" xml:space="preserve">
<g>
	<g>
		<polygon points="391,0 391,30 361,30 361,0 331,0 331,30 301,30 301,0 271,0 271,30 241,30 241,0 211,0 211,30 181,30 181,0 
			151,0 151,30 121,30 121,0 91,0 91,512 121,512 121,482 151,482 151,512 181,512 181,482 211,482 211,512 241,512 241,482 
			271,482 271,512 301,512 301,482 331,482 331,512 361,512 361,482 391,482 391,512 421,512 421,0 		"/>
	</g>
</g>
<g>
</g>
<g>
</g>
<g>
</g>
<g>
</g>
<g>
</g>
<g>
</g>
<g>
</g>
<g>
</g>
<g>
</g>
<g>
</g>
<g>
</g>
<g>
</g>
<g>
</g>
<g>
</g>
<g>
</g>
</svg>
