<?xml version="1.0" encoding="iso-8859-1"?>
<!-- Generator: Adobe Illustrator 19.0.0, SVG Export Plug-In . SVG Version: 6.00 Build 0)  -->
<svg version="1.1" id="Capa_1" xmlns="http://www.w3.org/2000/svg" xmlns:xlink="http://www.w3.org/1999/xlink" x="0px" y="0px"
	 viewBox="0 0 512 512" style="enable-background:new 0 0 512 512;" xml:space="preserve">
<g>
	<g>
		<path d="M45.096,0c-12.433,0-24.44,5.205-32.941,14.279C3.685,23.32-0.711,35.584,0.094,47.925
			C7.946,168.26,59.361,281.623,144.87,367.13s198.871,136.923,319.205,144.775c0.964,0.063,1.926,0.094,2.887,0.094
			c11.349,0,22.425-4.347,30.76-12.155c9.074-8.501,14.278-20.508,14.278-32.94V0H45.096z M351.695,190.362
			c-16.6,0-30.057-13.457-30.057-30.057c0-16.601,13.458-30.057,30.057-30.057c16.6,0,30.057,13.457,30.057,30.057
			C381.752,176.906,368.296,190.362,351.695,190.362z M481.943,139.051L372.948,30.057h108.994V139.051z"/>
	</g>
</g>
<g>
</g>
<g>
</g>
<g>
</g>
<g>
</g>
<g>
</g>
<g>
</g>
<g>
</g>
<g>
</g>
<g>
</g>
<g>
</g>
<g>
</g>
<g>
</g>
<g>
</g>
<g>
</g>
<g>
</g>
</svg>
