<?xml version="1.0" encoding="iso-8859-1"?>
<!-- Generator: Adobe Illustrator 19.0.0, SVG Export Plug-In . SVG Version: 6.00 Build 0)  -->
<svg version="1.1" id="Capa_1" xmlns="http://www.w3.org/2000/svg" xmlns:xlink="http://www.w3.org/1999/xlink" x="0px" y="0px"
	 viewBox="0 0 512 512" style="enable-background:new 0 0 512 512;" xml:space="preserve">
<g>
	<g>
		<path d="M362.5,222.826c-24.679-12.34-56.734-19.826-91.49-21.502v48.672h-30.02v-48.672c-34.756,1.676-66.811,9.163-91.49,21.502
			c-24.529,12.264-38.597,28.004-38.597,43.181c0,15.177,14.068,30.917,38.597,43.181c28.197,14.098,66.019,21.863,106.5,21.863
			c40.481,0,78.303-7.764,106.5-21.863c24.529-12.264,38.597-28.004,38.597-43.181C401.097,250.829,387.028,235.09,362.5,222.826z"
			/>
	</g>
</g>
<g>
	<g>
		<path d="M492.794,219.548L415.599,90.89H96.4L19.206,219.548c-24.996,41.659-25.628,91.77-1.691,134.047
			c23.936,42.276,67.232,67.516,115.813,67.516h245.344c48.582,0,91.877-25.24,115.813-67.516
			C518.422,311.318,517.79,261.206,492.794,219.548z M375.925,336.038C343.641,352.18,301.051,361.07,256,361.07
			s-87.642-8.89-119.925-25.032c-35.591-17.796-55.192-42.667-55.192-70.032c0-27.365,19.601-52.236,55.192-70.032
			c25.026-12.512,56.247-20.664,90.004-23.698c-0.06-0.771-0.099-1.548-0.099-2.334c0-16.58,13.44-30.02,30.02-30.02
			s30.02,13.44,30.02,30.02c0,0.787-0.04,1.563-0.099,2.334c33.758,3.034,64.978,11.185,90.004,23.698
			c35.591,17.796,55.192,42.667,55.192,70.032C431.117,293.372,411.516,318.242,375.925,336.038z"/>
	</g>
</g>
<g>
</g>
<g>
</g>
<g>
</g>
<g>
</g>
<g>
</g>
<g>
</g>
<g>
</g>
<g>
</g>
<g>
</g>
<g>
</g>
<g>
</g>
<g>
</g>
<g>
</g>
<g>
</g>
<g>
</g>
</svg>
