<?xml version="1.0" encoding="iso-8859-1"?>
<!-- Generator: Adobe Illustrator 19.0.0, SVG Export Plug-In . SVG Version: 6.00 Build 0)  -->
<svg version="1.1" id="Capa_1" xmlns="http://www.w3.org/2000/svg" xmlns:xlink="http://www.w3.org/1999/xlink" x="0px" y="0px"
	 viewBox="0 0 512 512" style="enable-background:new 0 0 512 512;" xml:space="preserve">
<g>
	<g>
		<path d="M421,114.938V0H91v114.938C33.057,157.832,0,220.127,0,287c0,60.495,26.896,117.246,75.733,159.801
			C123.983,488.845,188.003,512,256,512s132.017-23.155,180.267-65.199C485.104,404.246,512,347.495,512,287
			C512,220.127,478.943,157.832,421,114.938z M76,326c-11.046,0-20-8.954-20-20c0-11.046,8.954-20,20-20s20,8.954,20,20
			C96,317.046,87.046,326,76,326z M161,426c-11.046,0-20-8.954-20-20c0-11.046,8.954-20,20-20s20,8.954,20,20
			C181,417.046,172.046,426,161,426z M161,326c-11.046,0-20-8.954-20-20c0-11.046,8.954-20,20-20s20,8.954,20,20
			C181,317.046,172.046,326,161,326z M161,226c-11.046,0-20-8.954-20-20s8.954-20,20-20s20,8.954,20,20S172.046,226,161,226z
			 M256,426c-11.046,0-20-8.954-20-20c0-11.046,8.954-20,20-20s20,8.954,20,20C276,417.046,267.046,426,256,426z M256,326
			c-11.046,0-20-8.954-20-20c0-11.046,8.954-20,20-20s20,8.954,20,20C276,317.046,267.046,326,256,326z M256,226
			c-16.569,0-30-13.431-30-30c0-16.569,13.431-30,30-30c16.569,0,30,13.431,30,30C286,212.569,272.569,226,256,226z M351,426
			c-11.046,0-20-8.954-20-20c0-11.046,8.954-20,20-20c11.046,0,20,8.954,20,20C371,417.046,362.046,426,351,426z M351,326
			c-11.046,0-20-8.954-20-20c0-11.046,8.954-20,20-20c11.046,0,20,8.954,20,20C371,317.046,362.046,326,351,326z M351,226
			c-11.046,0-20-8.954-20-20s8.954-20,20-20c11.046,0,20,8.954,20,20S362.046,226,351,226z M391,106H121V76h270V106z M436,326
			c-11.046,0-20-8.954-20-20c0-11.046,8.954-20,20-20c11.046,0,20,8.954,20,20C456,317.046,447.046,326,436,326z"/>
	</g>
</g>
<g>
</g>
<g>
</g>
<g>
</g>
<g>
</g>
<g>
</g>
<g>
</g>
<g>
</g>
<g>
</g>
<g>
</g>
<g>
</g>
<g>
</g>
<g>
</g>
<g>
</g>
<g>
</g>
<g>
</g>
</svg>
