<?xml version="1.0" encoding="iso-8859-1"?>
<!-- Generator: Adobe Illustrator 19.0.0, SVG Export Plug-In . SVG Version: 6.00 Build 0)  -->
<svg version="1.1" id="Capa_1" xmlns="http://www.w3.org/2000/svg" xmlns:xlink="http://www.w3.org/1999/xlink" x="0px" y="0px"
	 viewBox="0 0 512 512" style="enable-background:new 0 0 512 512;" xml:space="preserve">
<g>
	<g>
		<path d="M326,120h-55v40h-30v-40h-55c-8.271,0-15,6.729-15,15v272c0,8.271,6.729,15,15,15h140c8.271,0,15-6.729,15-15V135
			C341,126.729,334.271,120,326,120z"/>
	</g>
</g>
<g>
	<g>
		<path d="M81,0v512h350V0H81z M371,407c0,24.813-20.187,45-45,45H186c-24.813,0-45-20.187-45-45V135c0-24.813,20.187-45,45-45
			h41.714C226.608,86.872,226,83.507,226,80c0-16.569,13.431-30,30-30c16.569,0,30,13.431,30,30c0,3.507-0.608,6.872-1.714,10H326
			c24.813,0,45,20.187,45,45V407z"/>
	</g>
</g>
<g>
</g>
<g>
</g>
<g>
</g>
<g>
</g>
<g>
</g>
<g>
</g>
<g>
</g>
<g>
</g>
<g>
</g>
<g>
</g>
<g>
</g>
<g>
</g>
<g>
</g>
<g>
</g>
<g>
</g>
</svg>
