<?xml version="1.0" encoding="iso-8859-1"?>
<!-- Generator: Adobe Illustrator 19.0.0, SVG Export Plug-In . SVG Version: 6.00 Build 0)  -->
<svg version="1.1" id="Capa_1" xmlns="http://www.w3.org/2000/svg" xmlns:xlink="http://www.w3.org/1999/xlink" x="0px" y="0px"
	 viewBox="0 0 512 512" style="enable-background:new 0 0 512 512;" xml:space="preserve">
<g>
	<g>
		<path d="M177.993,236.436c-12.861-7.717-29.817-12.829-47.993-14.667V251h-30v-29.23c-18.176,1.837-35.132,6.95-47.993,14.667
			C32.859,247.925,30,259.89,30,266s2.859,18.075,22.007,29.564C68.356,305.374,91.316,311,115,311s46.644-5.626,62.993-15.436
			C197.141,284.075,200,272.11,200,266S197.141,247.925,177.993,236.436z"/>
	</g>
</g>
<g>
	<g>
		<path d="M459.993,236.436c-12.861-7.717-29.817-12.829-47.993-14.667V251h-30v-29.23c-18.176,1.837-35.132,6.95-47.993,14.667
			C314.859,247.925,312,259.89,312,266s2.859,18.075,22.007,29.564C350.356,305.374,373.316,311,397,311
			c23.684,0,46.644-5.626,62.993-15.436C479.141,284.075,482,272.11,482,266S479.141,247.925,459.993,236.436z"/>
	</g>
</g>
<g>
	<g>
		<path d="M0,111v155c0-35.288,35.568-64.157,85.109-72.536C85.043,192.651,85,191.831,85,191c0-16.569,13.431-30,30-30
			c16.569,0,30,13.431,30,30c0,0.831-0.043,1.651-0.109,2.464C194.432,201.843,230,230.712,230,266c0,42.056-50.514,75-115,75
			S0,308.056,0,266v135h512V266c0,42.056-50.514,75-115,75s-115-32.944-115-75c0-35.288,35.568-64.157,85.109-72.536
			C367.043,192.651,367,191.831,367,191c0-16.569,13.431-30,30-30c16.569,0,30,13.431,30,30c0,0.831-0.043,1.651-0.109,2.464
			C476.432,201.843,512,230.712,512,266V111H0z"/>
	</g>
</g>
<g>
</g>
<g>
</g>
<g>
</g>
<g>
</g>
<g>
</g>
<g>
</g>
<g>
</g>
<g>
</g>
<g>
</g>
<g>
</g>
<g>
</g>
<g>
</g>
<g>
</g>
<g>
</g>
<g>
</g>
</svg>
