<?xml version="1.0" encoding="iso-8859-1"?>
<!-- Generator: Adobe Illustrator 19.0.0, SVG Export Plug-In . SVG Version: 6.00 Build 0)  -->
<svg version="1.1" id="Capa_1" xmlns="http://www.w3.org/2000/svg" xmlns:xlink="http://www.w3.org/1999/xlink" x="0px" y="0px"
	 viewBox="0 0 512 512" style="enable-background:new 0 0 512 512;" xml:space="preserve">
<g>
	<g>
		<path d="M0,0v512h512V0H0z M106,462c-11.046,0-20-8.954-20-20c0-11.046,8.954-20,20-20s20,8.954,20,20
			C126,453.046,117.046,462,106,462z M206,462c-11.046,0-20-8.954-20-20c0-11.046,8.954-20,20-20s20,8.954,20,20
			C226,453.046,217.046,462,206,462z M241,278.25h-30v30h30V371h-90.5v-30h-30v30H30v-62.75h30v-30H30V215.5h90.5v30h30v-30H241
			V278.25z M241,92.75h-30v30h30v62.75h-90.5v-30h-30v30H30v-62.75h30v-30H30V30h90.5v30h30V30H241V92.75z M306,462
			c-11.046,0-20-8.954-20-20c0-11.046,8.954-20,20-20c11.046,0,20,8.954,20,20C326,453.046,317.046,462,306,462z M406,462
			c-11.046,0-20-8.954-20-20c0-11.046,8.954-20,20-20c11.046,0,20,8.954,20,20C426,453.046,417.046,462,406,462z M482,278.25h-30v30
			h30V371h-90.5v-30h-30v30H271v-62.75h30v-30h-30V215.5h90.5v30h30v-30H482V278.25z M482,92.75h-30v30h30v62.75h-90.5v-30h-30v30
			H271v-62.75h30v-30h-30V30h90.5v30h30V30H482V92.75z"/>
	</g>
</g>
<g>
	<g>
		<circle cx="135.5" cy="293.25" r="20"/>
	</g>
</g>
<g>
	<g>
		<circle cx="376.5" cy="293.25" r="20"/>
	</g>
</g>
<g>
	<g>
		<circle cx="135.5" cy="107.75" r="20"/>
	</g>
</g>
<g>
	<g>
		<circle cx="376.5" cy="107.75" r="20"/>
	</g>
</g>
<g>
</g>
<g>
</g>
<g>
</g>
<g>
</g>
<g>
</g>
<g>
</g>
<g>
</g>
<g>
</g>
<g>
</g>
<g>
</g>
<g>
</g>
<g>
</g>
<g>
</g>
<g>
</g>
<g>
</g>
</svg>
