<?xml version="1.0" encoding="iso-8859-1"?>
<!-- Generator: Adobe Illustrator 19.0.0, SVG Export Plug-In . SVG Version: 6.00 Build 0)  -->
<svg version="1.1" id="Capa_1" xmlns="http://www.w3.org/2000/svg" xmlns:xlink="http://www.w3.org/1999/xlink" x="0px" y="0px"
	 viewBox="0 0 512 512" style="enable-background:new 0 0 512 512;" xml:space="preserve">
<g>
	<g>
		<path d="M493.788,214.492c-8.4-7.729-18.935-12.655-30.073-14.285c-4.828-18.092-12.008-35.426-21.387-51.633
			c6.721-9.028,10.689-19.961,11.164-31.365c0.653-15.715-5.351-31.107-16.473-42.229c-11.122-11.122-26.518-17.122-42.229-16.472
			c-11.403,0.474-22.336,4.442-31.363,11.164c-16.207-9.38-33.542-16.56-51.635-21.388c-1.631-11.137-6.556-21.673-14.284-30.072
			C286.858,6.638,271.729,0,256,0s-30.858,6.638-41.508,18.213c-7.728,8.399-12.653,18.935-14.284,30.072
			c-18.093,4.828-35.427,12.008-51.635,21.388c-9.028-6.721-19.96-10.689-31.364-11.164C101.494,57.86,86.102,63.86,74.98,74.981
			c-11.122,11.122-17.126,26.514-16.473,42.229c0.474,11.404,4.443,22.336,11.164,31.364c-9.379,16.207-16.559,33.541-21.387,51.633
			c-11.139,1.631-21.673,6.557-30.073,14.286C6.638,225.143,0,240.271,0,256s6.638,30.858,18.213,41.508
			c8.399,7.729,18.935,12.654,30.072,14.285c4.828,18.092,12.008,35.426,21.387,51.633c-6.721,9.028-10.689,19.961-11.164,31.365
			c-0.653,15.715,5.351,31.107,16.472,42.229c11.122,11.122,26.512,17.122,42.229,16.473c11.404-0.475,22.336-4.443,31.364-11.164
			c16.207,9.38,33.542,16.56,51.635,21.388c1.631,11.137,6.556,21.673,14.284,30.072C225.142,505.362,240.271,512,256,512
			s30.858-6.638,41.508-18.213c7.728-8.399,12.653-18.935,14.284-30.072c18.093-4.828,35.427-12.008,51.635-21.388
			c9.028,6.721,19.96,10.689,31.364,11.164c15.722,0.653,31.107-5.35,42.229-16.473c11.122-11.122,17.126-26.514,16.472-42.229
			c-0.474-11.403-4.443-22.336-11.164-31.364c9.38-16.208,16.56-33.543,21.388-51.636c11.136-1.632,21.672-6.555,30.071-14.282
			C505.362,286.858,512,271.729,512,256S505.362,225.143,493.788,214.492z M92.387,342.264
			c-5.303-10.016-9.722-20.571-13.132-31.567l55.95-4.663L92.387,342.264z M79.255,201.302c3.41-10.995,7.829-21.55,13.132-31.567
			l42.818,36.23L79.255,201.302z M201.303,432.745c-10.996-3.41-21.551-7.829-31.568-13.132l36.231-42.818L201.303,432.745z
			 M169.735,92.387c10.017-5.303,20.572-9.722,31.568-13.132l4.663,55.95L169.735,92.387z M310.697,432.745l-4.663-55.95
			l36.231,42.818C332.248,424.916,321.693,429.335,310.697,432.745z M306.035,135.205l4.663-55.95
			c10.995,3.41,21.55,7.829,31.568,13.132L306.035,135.205z M419.613,169.735c5.303,10.018,9.722,20.572,13.132,31.567l-55.95,4.663
			L419.613,169.735z M419.613,342.266l-42.818-36.231l55.95,4.663C429.335,321.693,424.916,332.248,419.613,342.266z"/>
	</g>
</g>
<g>
</g>
<g>
</g>
<g>
</g>
<g>
</g>
<g>
</g>
<g>
</g>
<g>
</g>
<g>
</g>
<g>
</g>
<g>
</g>
<g>
</g>
<g>
</g>
<g>
</g>
<g>
</g>
<g>
</g>
</svg>
