<?xml version="1.0" encoding="iso-8859-1"?>
<!-- Generator: Adobe Illustrator 19.0.0, SVG Export Plug-In . SVG Version: 6.00 Build 0)  -->
<svg version="1.1" id="Capa_1" xmlns="http://www.w3.org/2000/svg" xmlns:xlink="http://www.w3.org/1999/xlink" x="0px" y="0px"
	 viewBox="0 0 512 512" style="enable-background:new 0 0 512 512;" xml:space="preserve">
<g>
	<g>
		<path d="M0,216v230h512V216H0z M422,306H90v-60h30v30h30v-30h30v30h30v-30h30v30h30v-30h30v30h30v-30h30v30h30v-30h32V306z"/>
	</g>
</g>
<g>
	<g>
		<path d="M333.704,82.843C325.118,72.14,312.323,66,298.602,66h-85.203c-13.722,0-26.516,6.139-35.102,16.842
			s-11.803,24.525-8.826,37.919L183.967,186h144.065l14.497-65.238C345.507,107.367,342.29,93.546,333.704,82.843z M241,156h-32.967
			l-9.277-41.746c-0.993-4.465,0.079-9.072,2.942-12.64c2.862-3.568,7.126-5.614,11.7-5.614H241V156z M313.244,114.254L303.968,156
			H271V96h27.602c4.574,0,8.838,2.046,11.701,5.614C313.164,105.182,314.237,109.788,313.244,114.254z"/>
	</g>
</g>
<g>
</g>
<g>
</g>
<g>
</g>
<g>
</g>
<g>
</g>
<g>
</g>
<g>
</g>
<g>
</g>
<g>
</g>
<g>
</g>
<g>
</g>
<g>
</g>
<g>
</g>
<g>
</g>
<g>
</g>
</svg>
