<?xml version="1.0" encoding="iso-8859-1"?>
<!-- Generator: Adobe Illustrator 19.0.0, SVG Export Plug-In . SVG Version: 6.00 Build 0)  -->
<svg version="1.1" id="Capa_1" xmlns="http://www.w3.org/2000/svg" xmlns:xlink="http://www.w3.org/1999/xlink" x="0px" y="0px"
	 viewBox="0 0 512 512" style="enable-background:new 0 0 512 512;" xml:space="preserve">
<g>
	<g>
		<path d="M0,141v230h512V141H0z M449.142,286.674c-5.876,10.157-6.725,26.246-16.882,32.122c-9.845,5.696-24.068-1.448-36.26-1.448
			s-26.415,7.145-36.26,1.449c-10.157-5.876-11.005-21.966-16.882-32.123c-4.18-7.224-12.645-13.8-16.858-21.606
			c-4.213,7.806-12.679,14.382-16.858,21.606c-5.876,10.157-6.725,26.246-16.882,32.122c-9.845,5.696-24.068-1.448-36.26-1.448
			s-26.415,7.145-36.26,1.449c-10.157-5.876-11.005-21.966-16.882-32.123c-4.18-7.224-12.645-13.8-16.858-21.606
			c-4.213,7.806-12.679,14.382-16.858,21.606c-5.876,10.157-6.725,26.246-16.882,32.122c-9.845,5.696-24.068-1.448-36.26-1.448
			c-12.192,0-26.415,7.145-36.26,1.449c-10.157-5.876-11.005-21.966-16.882-32.123c-5.696-9.845-19.36-18.482-19.36-30.674
			s13.665-20.829,19.36-30.674c5.876-10.157,6.725-26.246,16.882-32.122c9.845-5.696,24.068,1.448,36.26,1.448
			s26.415-7.145,36.26-1.449c10.157,5.876,11.005,21.966,16.882,32.122c4.18,7.225,12.645,13.801,16.858,21.607
			c4.213-7.806,12.679-14.382,16.858-21.606c5.876-10.157,6.725-26.246,16.882-32.122c9.845-5.696,24.068,1.448,36.26,1.448
			c12.192,0,26.415-7.145,36.26-1.449c10.157,5.876,11.005,21.966,16.882,32.122c4.18,7.225,12.645,13.801,16.858,21.607
			c4.213-7.806,12.679-14.382,16.858-21.606c5.876-10.157,6.725-26.246,16.882-32.122c9.845-5.696,24.068,1.448,36.26,1.448
			s26.415-7.145,36.26-1.449c10.157,5.876,11.005,21.966,16.882,32.122c5.696,9.845,19.36,18.482,19.36,30.674
			C468.502,268.191,454.837,276.829,449.142,286.674z"/>
	</g>
</g>
<g>
</g>
<g>
</g>
<g>
</g>
<g>
</g>
<g>
</g>
<g>
</g>
<g>
</g>
<g>
</g>
<g>
</g>
<g>
</g>
<g>
</g>
<g>
</g>
<g>
</g>
<g>
</g>
<g>
</g>
</svg>
