<?xml version="1.0" standalone="no"?>
<!DOCTYPE svg PUBLIC "-//W3C//DTD SVG 20010904//EN"
 "http://www.w3.org/TR/2001/REC-SVG-20010904/DTD/svg10.dtd">
<svg version="1.0" xmlns="http://www.w3.org/2000/svg"
 width="920.000000pt" height="979.000000pt" viewBox="0 0 920.000000 979.000000"
 preserveAspectRatio="xMidYMid meet">
<metadata>
Created by potrace 1.15, written by Peter Selinger 2001-2017
</metadata>
<g transform="translate(0.000000,979.000000) scale(0.100000,-0.100000)"
fill="#000000" stroke="none">
<path d="M267 9673 c-4 -3 -7 -66 -7 -138 l0 -132 43 1 42 1 3 -382 2 -383
-40 0 -40 0 -3 378 -2 377 -3 -415 -2 -415 45 3 45 4 0 -385 0 -385 -35 -4
c-20 -2 -38 -2 -40 1 -3 2 -5 149 -5 325 l0 321 -82 -3 c-130 -4 -142 -9 -30
-11 l102 -1 -2 -1427 -3 -1428 -82 -3 -83 -3 0 -49 0 -49 83 -3 82 -3 3 -1248
2 -1247 105 0 104 0 3 83 3 82 55 0 55 0 3 38 c3 33 5 37 18 26 13 -10 30 2
107 77 93 91 383 364 424 399 29 25 29 33 -1 46 -23 11 -41 -4 -288 -235
l-263 -245 -112 -1 -113 0 0 3160 0 3159 156 3 157 3 0 46 c0 26 -3 51 -7 58
-8 12 -387 17 -399 4z"/>
<path d="M1550 9672 c-5 -2 -10 -28 -10 -58 l0 -54 498 0 498 0 0 55 c0 31 -5
55 -11 55 -80 3 -968 4 -975 2z m910 -57 l0 -35 -422 2 -423 3 -1 25 c-1 14 0
28 3 33 2 4 193 7 424 7 l419 0 0 -35z"/>
<path d="M3414 9669 c-4 -7 -7 -32 -7 -58 l0 -46 1677 -3 1676 -2 0 -1903 c0
-1047 3 -2276 7 -2730 l6 -826 -88 -91 -89 -90 24 -25 c18 -19 21 -28 12 -34
-9 -6 -12 -78 -10 -312 3 -296 3 -304 23 -304 19 0 20 8 23 300 l2 301 53 52
52 52 135 -135 135 -135 193 0 193 0 -3 53 -3 52 -170 3 -170 3 -102 107 -102
107 -1 2778 0 2777 1058 -2 1057 -3 2 -2882 2 -2883 -434 0 -435 0 0 -55 0
-55 410 0 410 0 0 -707 c0 -390 0 -781 0 -871 l0 -162 80 1 80 1 0 497 c0 273
3 2007 7 3853 5 2728 4 3360 -7 3373 -11 13 -300 15 -2851 15 -2107 0 -2840
-3 -2845 -11z"/>
<path d="M2327 3783 c-4 -3 -7 -127 -7 -275 l0 -268 -109 0 -109 0 -264 245
c-145 135 -268 245 -274 245 -6 0 -18 -7 -25 -16 -12 -14 2 -31 116 -138 71
-66 192 -180 270 -253 89 -85 143 -129 149 -123 18 18 25 11 28 -27 l3 -37 80
0 80 -1 5 -80 5 -80 48 -3 47 -3 0 -489 0 -489 -47 -3 -48 -3 -3 -67 -3 -68
-899 0 -900 0 0 70 0 70 -105 0 -105 0 0 -125 0 -125 405 0 405 0 0 -798 0
-797 53 1 52 2 3 796 2 796 1043 -2 1042 -3 2 -765 c1 -421 2 -778 3 -795 0
-29 1 -30 50 -30 l50 0 0 852 0 853 -470 0 -470 0 0 915 0 915 1148 0 1147 0
438 -438 c420 -421 437 -439 437 -475 l0 -37 55 0 55 0 0 78 0 78 53 52 53 52
302 0 303 0 -3 28 -3 27 -307 3 -308 2 0 -22 c0 -21 -1 -21 -30 7 l-30 29 -63
-62 -62 -62 -425 425 -425 425 -1216 0 c-669 0 -1219 -3 -1222 -7z"/>
<path d="M5598 1973 l-3 -58 -237 -3 -238 -2 0 -883 0 -882 47 0 48 0 5 145 5
145 475 0 475 0 3 -52 3 -53 50 0 49 0 0 135 0 135 -57 0 c-32 1 -268 0 -525
0 l-467 -1 -6 23 c-3 13 -4 284 -3 603 l3 580 243 3 242 2 0 55 0 55 270 0
270 0 0 -216 0 -217 -45 5 c-35 4 -45 2 -45 -9 0 -10 6 -13 16 -9 9 3 33 6 55
6 l39 0 0 230 0 230 -279 0 -280 0 -3 43 -3 42 -52 3 -52 3 -3 -58z"/>
<path d="M8950 585 c-1 -200 -1 -355 0 -402 l0 -38 80 0 80 0 0 298 0 297 -80
0 -80 0 0 -155z"/>
</g>
</svg>
