<?xml version="1.0" standalone="no"?>
<!DOCTYPE svg PUBLIC "-//W3C//DTD SVG 20010904//EN"
 "http://www.w3.org/TR/2001/REC-SVG-20010904/DTD/svg10.dtd">
<svg version="1.0" xmlns="http://www.w3.org/2000/svg"
 width="960.000000pt" height="956.000000pt" viewBox="0 0 960.000000 956.000000"
 preserveAspectRatio="xMidYMid meet">
<metadata>
Created by potrace 1.15, written by Peter Selinger 2001-2017
</metadata>
<g transform="translate(0.000000,956.000000) scale(0.100000,-0.100000)"
fill="#000000" stroke="none">
<path d="M3360 8558 c0 -5 191 -8 425 -8 l425 0 0 -40 0 -41 -350 3 c-278 2
-350 0 -350 -10 0 -10 72 -12 348 -12 l347 1 3 -40 3 -41 -425 0 -426 0 0
-145 0 -145 -445 0 -445 0 0 160 0 160 445 0 445 0 0 65 0 65 -1147 0 -1146 0
6 -2157 c4 -1187 7 -3057 7 -4155 l0 -1998 2024 0 2025 0 129 128 130 128 -43
45 -43 46 -108 -108 -109 -109 -1607 0 -1608 0 0 1225 0 1225 30 0 30 0 0
2435 0 2435 2425 0 2425 0 0 365 0 365 30 0 30 0 0 -405 0 -405 515 0 515 0 2
408 c3 354 5 407 18 407 13 0 16 -46 20 -330 l5 -330 375 0 375 0 3 333 c2
260 5 333 15 329 9 -3 13 -187 15 -840 l2 -837 63 0 62 0 -3 900 -2 900 -2225
3 -2225 2 0 -67 0 -68 1200 0 1200 0 0 -160 0 -160 -910 0 -909 0 -4 158 -3
157 -2 -157 -2 -158 -785 0 -785 0 0 135 c0 101 3 135 13 135 6 0 231 0 500 0
324 0 487 3 487 10 0 6 -31 10 -75 10 l-75 0 0 90 0 90 75 0 c45 0 75 4 75 10
0 8 -160 10 -505 8 -278 -2 -505 -6 -505 -10z m4498 -526 l2 -372 -505 0 -505
0 0 370 0 370 443 2 c243 2 469 3 502 2 l60 -1 3 -371z m793 93 c0 -154 0
-301 -1 -327 l0 -48 -363 0 -363 0 -2 321 c-1 177 0 324 2 328 2 3 167 6 366
6 l361 0 0 -280z m-6702 116 l0 -159 -192 -196 -192 -196 -182 0 -183 0 0 355
0 355 375 0 375 0 -1 -159z m511 -1 l0 -160 -250 0 -250 0 0 160 0 160 250 0
250 0 0 -160z m1032 -292 l2 -123 3 122 4 122 1039 1 1040 0 2 -192 3 -193 2
193 3 192 590 0 590 0 0 -195 0 -195 -2425 0 -2425 0 -1 -622 c-1 -343 -1
-647 1 -675 l2 -53 -146 0 c-118 0 -146 3 -146 14 0 8 7 16 15 20 8 3 15 14
15 24 0 11 -7 25 -15 32 -33 27 -13 31 124 28 77 -2 137 0 134 5 -2 4 -65 7
-139 7 l-134 0 0 75 0 75 -215 0 -215 0 0 25 0 25 190 0 190 0 0 48 c1 26 1
258 0 516 l-1 470 188 188 188 188 767 0 768 0 2 -122z m-1922 -773 l0 -505
-185 0 -185 0 0 505 0 505 185 0 185 0 0 -505z m6290 450 l0 -25 -505 0 -505
0 0 25 0 25 505 0 505 0 0 -25z m-6243 -1555 c2 -497 1 -524 -15 -500 -9 13
-65 87 -124 163 l-108 139 0 196 0 196 103 135 c57 75 112 150 121 166 26 44
4 16 -117 -143 l-108 -142 -84 0 -85 0 0 160 0 160 208 -2 207 -3 2 -525z
m303 -57 c0 -271 -2 -309 -17 -325 -14 -16 -33 -18 -145 -18 l-128 0 0 325 0
325 145 0 145 0 0 -307z m-560 57 l0 -200 -80 0 -80 0 0 200 0 200 80 0 80 0
0 -200z m52 -269 c23 -32 78 -104 121 -159 42 -56 77 -104 77 -107 0 -3 -92
-5 -205 -5 l-205 0 0 165 0 165 84 0 84 0 44 -59z m508 -751 l0 -630 -180 0
-180 0 0 530 0 530 -180 0 c-173 0 -180 1 -180 20 0 19 7 20 215 20 l215 0 0
70 0 70 128 0 c70 0 134 5 142 10 8 5 16 10 18 10 1 0 2 -283 2 -630z m-370
-105 l0 -525 -175 0 -174 0 -1 525 0 525 175 0 175 0 0 -525z m370 -960 l0
-424 -357 2 -358 2 -1 423 -2 422 359 0 359 0 0 -425z m0 -805 l0 -370 -357 0
-358 0 -1 370 0 370 358 0 358 0 0 -370z m-353 -707 l-2 -328 -177 0 -178 0 0
327 0 328 180 0 179 0 -2 -327z m293 -898 l0 -1225 -140 0 -140 0 0 388 c0
213 0 617 0 897 0 281 0 657 0 838 l0 327 140 0 140 0 0 -1225z m-292 58 l-3
-498 -180 -3 -180 -2 3 500 2 500 181 0 180 0 -3 -497z m1 -898 l1 -385 -180
0 -180 0 0 385 0 385 179 0 179 0 1 -385z"/>
<path d="M1700 6234 c-14 -7 -21 -14 -17 -14 5 0 1 -10 -7 -22 -25 -35 -20
-101 9 -136 61 -73 183 -40 201 55 8 44 -19 106 -52 122 -33 15 -103 12 -134
-5z"/>
<path d="M1715 5949 c-22 -10 -36 -19 -32 -19 5 0 1 -10 -7 -22 -29 -41 -13
-147 24 -157 8 -2 31 -8 50 -14 88 -24 165 66 131 155 -5 13 -9 27 -9 32 -1
11 -79 45 -102 45 -8 -1 -33 -9 -55 -20z m113 -11 c14 -14 -11 -48 -37 -48
-14 -1 -13 -2 2 -11 36 -21 8 -77 -33 -64 -25 8 -27 50 -2 64 15 9 15 10 -5
11 -13 0 -23 4 -23 9 0 5 -8 12 -17 15 -15 6 -14 3 3 -16 16 -18 19 -31 14
-61 -4 -21 -12 -43 -19 -50 -18 -18 -41 18 -41 66 0 56 43 97 102 97 24 0 49
-5 56 -12z"/>
<path d="M8700 4505 l0 -815 -1115 0 -1115 0 0 -977 0 -978 -97 -98 -97 -97
44 -45 45 -46 112 116 113 115 0 940 0 940 1120 0 1120 0 0 880 0 880 -65 0
-65 0 0 -815z"/>
</g>
</svg>
