<?xml version="1.0" standalone="no"?>
<!DOCTYPE svg PUBLIC "-//W3C//DTD SVG 20010904//EN"
 "http://www.w3.org/TR/2001/REC-SVG-20010904/DTD/svg10.dtd">
<svg version="1.0" xmlns="http://www.w3.org/2000/svg"
 width="1578.000000pt" height="1275.000000pt" viewBox="0 0 1578.000000 1275.000000"
 preserveAspectRatio="xMidYMid meet">
<metadata>
Created by potrace 1.15, written by Peter Selinger 2001-2017
</metadata>
<g transform="translate(0.000000,1275.000000) scale(0.100000,-0.100000)"
fill="#000000" stroke="none">
<path d="M1330 11512 c-6 -2 -10 -165 -10 -463 l0 -459 135 0 c74 0 135 3 135
8 1 4 2 147 3 317 l2 310 6160 0 6160 0 3 -1112 c2 -985 0 -1113 -13 -1113 -8
0 -15 -4 -15 -10 0 -5 7 -10 15 -10 13 0 15 -43 15 -325 0 -210 4 -325 10
-325 6 0 10 20 10 45 l0 45 550 0 550 0 0 -1265 0 -1265 -550 0 -550 0 0 40
c0 22 -4 40 -10 40 -6 0 -10 -117 -10 -330 0 -287 -2 -330 -15 -330 -8 0 -15
-4 -15 -10 0 -5 7 -10 15 -10 13 0 15 -131 15 -1115 l0 -1115 -985 -2 -985 -3
-1 -1330 c0 -731 3 -1331 8 -1332 4 -2 8 42 8 97 -1 55 1 116 3 135 l4 35 59
0 59 0 0 -135 c0 -83 4 -135 10 -135 6 0 10 52 10 135 l0 135 55 0 55 0 0
-136 c0 -85 4 -133 10 -129 6 4 9 436 7 1200 l-2 1195 988 0 987 0 0 1405 0
1405 550 0 550 0 0 1545 0 1545 -550 0 -550 0 0 1410 c0 1121 -3 1410 -12
1411 -27 4 -12859 4 -12868 1z m6525 -34 c3 -13 3 -36 1 -53 l-3 -30 -867 -3
-866 -2 0 55 0 55 865 0 865 0 5 -22z m1755 -33 l0 -55 -870 0 -870 0 0 55 0
55 870 0 870 0 0 -55z m1760 0 l0 -55 -870 0 -870 0 0 55 0 55 870 0 870 0 0
-55z m-3519 -97 c1 -13 2 -41 3 -63 l1 -40 -867 -3 -868 -2 0 65 0 65 865 0
865 0 1 -22z m1759 -43 l0 -65 -870 0 -870 0 0 65 0 65 870 0 870 0 0 -65z
m1760 0 l0 -65 -870 0 -870 0 0 65 0 65 870 0 870 0 0 -65z m2675 -1240 l0
-630 -52 -3 -53 -3 0 636 0 636 53 -3 52 -3 0 -630z m145 0 l0 -635 -65 0 -65
0 0 635 0 635 65 0 65 0 0 -635z m-150 -5221 c7 -7 9 -223 8 -620 l-3 -609
-52 -3 -53 -3 0 624 0 624 45 -2 c25 0 50 -6 55 -11z m148 -612 l2 -622 -65 0
-65 0 0 619 0 620 53 4 c28 1 57 2 62 2 7 -1 11 -218 13 -623z"/>
<path d="M1320 4541 c0 -4095 0 -4150 19 -4156 33 -10 251 -2 251 10 0 5 0
1873 0 4150 l0 4140 -135 3 -135 3 0 -4150z"/>
</g>
</svg>
