<?xml version="1.0" encoding="iso-8859-1"?>
<!-- Generator: Adobe Illustrator 19.0.0, SVG Export Plug-In . SVG Version: 6.00 Build 0)  -->
<svg version="1.1" id="Capa_1" xmlns="http://www.w3.org/2000/svg" xmlns:xlink="http://www.w3.org/1999/xlink" x="0px" y="0px"
	 viewBox="0 0 512 512" style="enable-background:new 0 0 512 512;" xml:space="preserve">
<g>
	<g>
		<path d="M415.959,220c-13.697-18.204-35.475-30-59.959-30h-40v-40h115V45c0-24.813-20.187-45-45-45H126c-24.813,0-45,20.187-45,45
			v105h115v40h-40c-24.484,0-46.262,11.796-59.959,30H0v195h30V310h51v127c0,41.355,33.645,75,75,75h200c41.355,0,75-33.645,75-75
			V310h51v105h30V220H415.959z M81,265v15H30v-30h52.509C81.521,254.848,81,259.864,81,265z M111,120V45c0-8.271,6.729-15,15-15h260
			c8.271,0,15,6.729,15,15v75H111z M286,150v40h-60v-40H286z M401,437c0,24.813-20.187,45-45,45H156c-24.813,0-45-20.187-45-45V265
			c0-24.813,20.187-45,45-45h200c24.813,0,45,20.187,45,45V437z M482,280h-51v-15c0-5.136-0.521-10.152-1.509-15H482V280z"/>
	</g>
</g>
<g>
</g>
<g>
</g>
<g>
</g>
<g>
</g>
<g>
</g>
<g>
</g>
<g>
</g>
<g>
</g>
<g>
</g>
<g>
</g>
<g>
</g>
<g>
</g>
<g>
</g>
<g>
</g>
<g>
</g>
</svg>
