<?xml version="1.0" encoding="iso-8859-1"?>
<!-- Generator: Adobe Illustrator 19.0.0, SVG Export Plug-In . SVG Version: 6.00 Build 0)  -->
<svg version="1.1" id="Capa_1" xmlns="http://www.w3.org/2000/svg" xmlns:xlink="http://www.w3.org/1999/xlink" x="0px" y="0px"
	 viewBox="0 0 512 512" style="enable-background:new 0 0 512 512;" xml:space="preserve">
<g>
	<g>
		<path d="M492.794,219.548L415.599,90.89H96.4L19.206,219.548c-24.996,41.659-25.628,91.77-1.691,134.047
			c23.936,42.276,67.232,67.516,115.813,67.516h245.344c48.582,0,91.877-25.24,115.813-67.516
			C518.422,311.318,517.79,261.206,492.794,219.548z M468.363,338.803c-18.537,32.741-52.067,52.287-89.691,52.287H133.328
			c-37.624,0-71.153-19.546-89.691-52.287c-18.536-32.741-18.047-71.548,1.311-103.81l68.45-114.083h285.205l68.45,114.083
			C486.41,267.255,486.899,306.062,468.363,338.803z"/>
	</g>
</g>
<g>
	<g>
		<path d="M375.925,195.975c-25.026-12.512-56.247-20.664-90.004-23.698c0.06-0.771,0.099-1.548,0.099-2.334
			c0-16.58-13.44-30.02-30.02-30.02s-30.02,13.44-30.02,30.02c0,0.787,0.04,1.563,0.099,2.334
			c-33.758,3.034-64.978,11.185-90.004,23.698c-35.591,17.796-55.192,42.667-55.192,70.032c0,27.365,19.601,52.236,55.192,70.032
			C168.358,352.18,210.949,361.07,256,361.07s87.642-8.89,119.925-25.032c35.591-17.796,55.192-42.667,55.192-70.032
			C431.117,238.641,411.516,213.771,375.925,195.975z M362.5,309.187c-28.197,14.098-66.019,21.863-106.5,21.863
			s-78.303-7.764-106.5-21.863c-24.529-12.264-38.597-28.004-38.597-43.181c0-15.177,14.068-30.917,38.597-43.181
			c24.679-12.34,56.734-19.826,91.49-21.502v48.673h30.02v-48.673c34.756,1.676,66.811,9.163,91.49,21.502
			c24.529,12.264,38.597,28.004,38.597,43.181C401.097,281.184,387.028,296.923,362.5,309.187z"/>
	</g>
</g>
<g>
</g>
<g>
</g>
<g>
</g>
<g>
</g>
<g>
</g>
<g>
</g>
<g>
</g>
<g>
</g>
<g>
</g>
<g>
</g>
<g>
</g>
<g>
</g>
<g>
</g>
<g>
</g>
<g>
</g>
</svg>
