<?xml version="1.0" encoding="iso-8859-1"?>
<!-- Generator: Adobe Illustrator 19.0.0, SVG Export Plug-In . SVG Version: 6.00 Build 0)  -->
<svg version="1.1" id="Capa_1" xmlns="http://www.w3.org/2000/svg" xmlns:xlink="http://www.w3.org/1999/xlink" x="0px" y="0px"
	 viewBox="0 0 512 512" style="enable-background:new 0 0 512 512;" xml:space="preserve">
<g>
	<g>
		<path d="M495.157,178.296c-10.703-8.586-24.526-11.803-37.919-8.826L422,177.301V90h-87.301l7.831-35.238
			c2.978-13.395-0.239-27.216-8.825-37.919S312.323,0,298.602,0h-85.203c-13.722,0-26.516,6.139-35.102,16.842
			s-11.803,24.525-8.826,37.919L177.301,90H90v87.301l-35.238-7.831c-13.395-2.979-27.216,0.24-37.919,8.826S0,199.677,0,213.398
			v85.203c0,13.722,6.139,26.516,16.842,35.102c8.089,6.489,17.958,9.911,28.079,9.911c3.271,0,6.568-0.357,9.84-1.085L90,334.699
			V422h87.301l-7.831,35.238c-2.977,13.395,0.24,27.216,8.826,37.919S199.677,512,213.398,512h85.203
			c13.722,0,26.517-6.139,35.103-16.843s11.803-24.525,8.825-37.919L334.699,422H422v-87.301l35.238,7.831
			c3.272,0.728,6.568,1.085,9.841,1.085c10.119,0,19.99-3.423,28.078-9.911c10.704-8.586,16.843-21.38,16.843-35.102v-85.203
			C512,199.677,505.861,186.882,495.157,178.296z M90,303.967l-41.746,9.278c-4.466,0.991-9.072-0.081-12.64-2.942
			C32.046,307.44,30,303.176,30,298.602V271h60V303.967z M90,241H30v-27.602c0-4.574,2.046-8.838,5.614-11.7
			c2.696-2.163,5.986-3.304,9.359-3.304c1.09,0,2.189,0.119,3.28,0.361L90,208.033V241z M271,30h27.602
			c4.574,0,8.838,2.046,11.701,5.614c2.861,3.568,3.934,8.174,2.941,12.64L303.968,90H271V30z M201.697,35.614
			C204.56,32.046,208.824,30,213.398,30H241v60h-32.967l-9.278-41.746C197.763,43.789,198.835,39.182,201.697,35.614z M241,482
			h-27.602c-4.574,0-8.838-2.046-11.7-5.614s-3.935-8.175-2.942-12.64L208.033,422H241V482z M310.303,476.386
			c-2.862,3.568-7.127,5.614-11.701,5.614H271v-60h32.968l9.276,41.747C314.236,468.212,313.164,472.818,310.303,476.386z M392,392
			H120V120h272V392z M482,298.602c0,4.574-2.046,8.838-5.614,11.7c-3.567,2.862-8.172,3.935-12.64,2.942L422,303.967V271h60V298.602
			z M482,241h-60v-32.967l41.746-9.278c4.466-0.991,9.071,0.08,12.64,2.942c3.568,2.862,5.614,7.126,5.614,11.701V241z"/>
	</g>
</g>
<g>
</g>
<g>
</g>
<g>
</g>
<g>
</g>
<g>
</g>
<g>
</g>
<g>
</g>
<g>
</g>
<g>
</g>
<g>
</g>
<g>
</g>
<g>
</g>
<g>
</g>
<g>
</g>
<g>
</g>
</svg>
