<?xml version="1.0" encoding="iso-8859-1"?>
<!-- Generator: Adobe Illustrator 19.0.0, SVG Export Plug-In . SVG Version: 6.00 Build 0)  -->
<svg version="1.1" id="Capa_1" xmlns="http://www.w3.org/2000/svg" xmlns:xlink="http://www.w3.org/1999/xlink" x="0px" y="0px"
	 viewBox="0 0 512 512" style="enable-background:new 0 0 512 512;" xml:space="preserve">
<g>
	<g>
		<path d="M0,161v190h512V161H0z M482,321H30V191h452V321z"/>
	</g>
</g>
<g>
	<g>
		<path d="M321,11H191c-24.813,0-45,20.187-45,45v40h30V56c0-8.271,6.729-15,15-15h15v90h100V41h15c8.271,0,15,6.729,15,15v40h30V56
			C366,31.187,345.813,11,321,11z M276,101h-40V41h40V101z"/>
	</g>
</g>
<g>
	<g>
		<path d="M462.529,446.238L448.032,381H303.968l-14.497,65.238c-2.978,13.395,0.239,27.216,8.825,37.919S319.677,501,333.398,501
			h85.203c13.722,0,26.517-6.139,35.103-16.843S465.507,459.632,462.529,446.238z M430.303,465.386
			c-2.862,3.568-7.127,5.614-11.701,5.614h-85.203c-4.574,0-8.839-2.046-11.701-5.614c-2.861-3.568-3.934-8.174-2.941-12.64
			L328.032,411h95.936l9.276,41.747C434.236,457.211,433.164,461.818,430.303,465.386z"/>
	</g>
</g>
<g>
	<g>
		<path d="M222.529,446.238L208.032,381H63.968l-14.497,65.238c-2.978,13.395,0.239,27.216,8.825,37.919S79.677,501,93.398,501
			h85.203c13.722,0,26.517-6.139,35.103-16.843S225.507,459.632,222.529,446.238z M190.303,465.386
			c-2.862,3.568-7.127,5.614-11.701,5.614H93.398c-4.574,0-8.839-2.046-11.701-5.614c-2.861-3.568-3.934-8.174-2.941-12.64
			L88.032,411h95.936l9.276,41.747C194.236,457.211,193.164,461.818,190.303,465.386z"/>
	</g>
</g>
<g>
</g>
<g>
</g>
<g>
</g>
<g>
</g>
<g>
</g>
<g>
</g>
<g>
</g>
<g>
</g>
<g>
</g>
<g>
</g>
<g>
</g>
<g>
</g>
<g>
</g>
<g>
</g>
<g>
</g>
</svg>
