<?xml version="1.0" encoding="iso-8859-1"?>
<!-- Generator: Adobe Illustrator 19.0.0, SVG Export Plug-In . SVG Version: 6.00 Build 0)  -->
<svg version="1.1" id="Capa_1" xmlns="http://www.w3.org/2000/svg" xmlns:xlink="http://www.w3.org/1999/xlink" x="0px" y="0px"
	 viewBox="0 0 512 512" style="enable-background:new 0 0 512 512;" xml:space="preserve">
<g>
	<g>
		<path d="M467,206h-35v-35c0-24.813-20.187-45-45-45H125c-24.813,0-45,20.187-45,45v35H45c-24.813,0-45,20.187-45,45v135h512V251
			C512,226.187,491.813,206,467,206z M80,356H30V251c0-8.271,6.729-15,15-15h35V356z M402,356H110V236h292V356z M402,206H110v-35
			c0-8.271,6.729-15,15-15h262c8.271,0,15,6.729,15,15V206z M482,356h-50V236h35c8.271,0,15,6.729,15,15V356z"/>
	</g>
</g>
<g>
</g>
<g>
</g>
<g>
</g>
<g>
</g>
<g>
</g>
<g>
</g>
<g>
</g>
<g>
</g>
<g>
</g>
<g>
</g>
<g>
</g>
<g>
</g>
<g>
</g>
<g>
</g>
<g>
</g>
</svg>
