<?xml version="1.0" encoding="iso-8859-1"?>
<!-- Generator: Adobe Illustrator 19.0.0, SVG Export Plug-In . SVG Version: 6.00 Build 0)  -->
<svg version="1.1" id="Capa_1" xmlns="http://www.w3.org/2000/svg" xmlns:xlink="http://www.w3.org/1999/xlink" x="0px" y="0px"
	 viewBox="0 0 512 512" style="enable-background:new 0 0 512 512;" xml:space="preserve">
<g>
	<g>
		<path d="M0,80.314v351.373h190.745V271.059H512V80.314H0z M60.235,401.569H30.118v-130.51h30.118V401.569z M160.627,401.569
			H90.353v-130.51h70.274V401.569z M160.627,240.941H90.353v-70.274h70.274V240.941z M160.627,140.549H60.235v100.392H30.118
			v-130.51h130.51V140.549z M321.255,240.941h-130.51v-70.274h130.51V240.941z M321.255,140.549h-130.51v-30.118h130.51V140.549z
			 M481.882,240.941h-130.51v-70.274h130.51V240.941z M481.882,140.549h-130.51v-30.118h130.51V140.549z"/>
	</g>
</g>
<g>
	<g>
		<path d="M250.98,301.177v130.51H512v-130.51H250.98z M481.882,401.569H281.098v-70.275h200.784V401.569z"/>
	</g>
</g>
<g>
</g>
<g>
</g>
<g>
</g>
<g>
</g>
<g>
</g>
<g>
</g>
<g>
</g>
<g>
</g>
<g>
</g>
<g>
</g>
<g>
</g>
<g>
</g>
<g>
</g>
<g>
</g>
<g>
</g>
</svg>
