<?xml version="1.0" encoding="iso-8859-1"?>
<!-- Generator: Adobe Illustrator 19.0.0, SVG Export Plug-In . SVG Version: 6.00 Build 0)  -->
<svg version="1.1" id="Capa_1" xmlns="http://www.w3.org/2000/svg" xmlns:xlink="http://www.w3.org/1999/xlink" x="0px" y="0px"
	 viewBox="0 0 512 512" style="enable-background:new 0 0 512 512;" xml:space="preserve">
<g>
	<g>
		<path d="M427,90h-45V45c0-24.813-20.187-45-45-45H175c-24.813,0-45,20.187-45,45v45H85c-24.813,0-45,20.187-45,45v165h432V135
			C472,110.187,451.813,90,427,90z M130,270H70V135c0-8.271,6.729-15,15-15h45V270z M352,270H160V120h192V270z M352,90H160V45
			c0-8.271,6.729-15,15-15h162c8.271,0,15,6.729,15,15V90z M442,270h-60V120h45c8.271,0,15,6.729,15,15V270z"/>
	</g>
</g>
<g>
	<g>
		<path d="M130,330v182h252V330H130z M352,482H160V360h192V482z"/>
	</g>
</g>
<g>
</g>
<g>
</g>
<g>
</g>
<g>
</g>
<g>
</g>
<g>
</g>
<g>
</g>
<g>
</g>
<g>
</g>
<g>
</g>
<g>
</g>
<g>
</g>
<g>
</g>
<g>
</g>
<g>
</g>
</svg>
