<?xml version="1.0" encoding="iso-8859-1"?>
<!-- Generator: Adobe Illustrator 19.0.0, SVG Export Plug-In . SVG Version: 6.00 Build 0)  -->
<svg version="1.1" id="Capa_1" xmlns="http://www.w3.org/2000/svg" xmlns:xlink="http://www.w3.org/1999/xlink" x="0px" y="0px"
	 viewBox="0 0 512 512" style="enable-background:new 0 0 512 512;" xml:space="preserve">
<g>
	<g>
		<path d="M382,131H130C58.318,131,0,189.318,0,261v58.281h60v5C60,355.556,85.444,381,116.719,381h278.563
			C426.556,381,452,355.556,452,324.281v-5h60V261C512,189.318,453.682,131,382,131z M422,324.281
			C422,339.014,410.014,351,395.281,351H116.719C101.986,351,90,339.014,90,324.281V261c0-22.056,17.944-40,40-40h252
			c22.056,0,40,17.944,40,40V324.281z M482,289.281h-30V261c0-38.598-31.402-70-70-70H130c-38.598,0-70,31.402-70,70v28.281H30V261
			c0-55.14,44.86-100,100-100h252c55.14,0,100,44.86,100,100V289.281z"/>
	</g>
</g>
<g>
	<g>
		<circle cx="336" cy="286" r="20"/>
	</g>
</g>
<g>
	<g>
		<circle cx="176" cy="286" r="20"/>
	</g>
</g>
<g>
</g>
<g>
</g>
<g>
</g>
<g>
</g>
<g>
</g>
<g>
</g>
<g>
</g>
<g>
</g>
<g>
</g>
<g>
</g>
<g>
</g>
<g>
</g>
<g>
</g>
<g>
</g>
<g>
</g>
</svg>
