<?xml version="1.0" encoding="iso-8859-1"?>
<!-- Generator: Adobe Illustrator 19.0.0, SVG Export Plug-In . SVG Version: 6.00 Build 0)  -->
<svg version="1.1" id="Capa_1" xmlns="http://www.w3.org/2000/svg" xmlns:xlink="http://www.w3.org/1999/xlink" x="0px" y="0px"
	 viewBox="0 0 512 512" style="enable-background:new 0 0 512 512;" xml:space="preserve">
<g>
	<g>
		<path d="M512,111h-57.301l7.831-35.238c2.978-13.395-0.239-27.216-8.825-37.919C445.118,27.139,432.323,21,418.602,21h-85.203
			c-13.722,0-26.517,6.139-35.103,16.843c-8.586,10.704-11.803,24.525-8.825,37.919l7.83,35.238h-82.602l7.831-35.238
			c2.977-13.395-0.24-27.216-8.826-37.919C205.118,27.139,192.323,21,178.602,21H93.398c-13.722,0-26.516,6.139-35.102,16.843
			C49.71,48.546,46.493,62.367,49.47,75.762L57.301,111H0v290h57.301l-7.831,35.238c-2.977,13.395,0.24,27.216,8.826,37.919
			C66.882,484.861,79.677,491,93.398,491h85.203c13.722,0,26.516-6.139,35.102-16.843c8.586-10.703,11.803-24.524,8.826-37.919
			L214.699,401h82.602l-7.831,35.238c-2.978,13.395,0.239,27.216,8.825,37.919C306.882,484.861,319.677,491,333.398,491h85.203
			c13.722,0,26.517-6.139,35.103-16.843s11.803-24.525,8.825-37.919L454.699,401H512V111z M391,51h27.602
			c4.574,0,8.838,2.046,11.701,5.614c2.861,3.568,3.934,8.175,2.941,12.64L423.968,111H391V51z M321.697,56.614
			C324.56,53.046,328.824,51,333.398,51H361v60h-32.968l-9.276-41.747C317.764,64.788,318.836,60.181,321.697,56.614z M151,51
			h27.602c4.574,0,8.838,2.046,11.7,5.614s3.935,8.175,2.942,12.64L183.967,111H151V51z M81.697,56.615
			C84.56,53.046,88.824,51,93.398,51H121v60H88.033l-9.278-41.746C77.763,64.789,78.835,60.182,81.697,56.615z M121,461H93.398
			c-4.574,0-8.838-2.046-11.7-5.614s-3.935-8.175-2.942-12.64L88.033,401H121V461z M190.303,455.385
			c-2.862,3.568-7.126,5.614-11.701,5.614H151v-60h32.967l9.278,41.747C194.237,447.211,193.165,451.818,190.303,455.385z M361,461
			h-27.602c-4.574,0-8.838-2.046-11.701-5.614c-2.861-3.568-3.934-8.175-2.941-12.64L328.032,401H361V461z M430.303,455.386
			c-2.862,3.568-7.127,5.614-11.701,5.614H391v-60h32.968l9.276,41.747C434.236,447.212,433.164,451.819,430.303,455.386z M482,371
			H30V141h452V371z"/>
	</g>
</g>
<g>
</g>
<g>
</g>
<g>
</g>
<g>
</g>
<g>
</g>
<g>
</g>
<g>
</g>
<g>
</g>
<g>
</g>
<g>
</g>
<g>
</g>
<g>
</g>
<g>
</g>
<g>
</g>
<g>
</g>
</svg>
