<?xml version="1.0" encoding="iso-8859-1"?>
<!-- Generator: Adobe Illustrator 19.0.0, SVG Export Plug-In . SVG Version: 6.00 Build 0)  -->
<svg version="1.1" id="Capa_1" xmlns="http://www.w3.org/2000/svg" xmlns:xlink="http://www.w3.org/1999/xlink" x="0px" y="0px"
	 viewBox="0 0 512 512" style="enable-background:new 0 0 512 512;" xml:space="preserve">
<g>
	<g>
		<path d="M256,151c-57.897,0-105,47.103-105,105c0,57.897,47.103,105,105,105c57.897,0,105-47.103,105-105
			C361,198.103,313.897,151,256,151z M256,331c-41.355,0-75-33.645-75-75s33.645-75,75-75c41.355,0,75,33.645,75,75
			C331,297.355,297.355,331,256,331z"/>
	</g>
</g>
<g>
	<g>
		<path d="M467,196h-75v120h75c24.813,0,45-20.187,45-45v-30C512,216.187,491.813,196,467,196z M482,271c0,8.271-6.729,15-15,15h-45
			v-60h45c8.271,0,15,6.729,15,15V271z"/>
	</g>
</g>
<g>
	<g>
		<path d="M45,196c-24.813,0-45,20.187-45,45v30c0,24.813,20.187,45,45,45h75V196H45z M90,286H45c-8.271,0-15-6.729-15-15v-30
			c0-8.271,6.729-15,15-15h45V286z"/>
	</g>
</g>
<g>
	<g>
		<path d="M196,392v75c0,24.813,20.187,45,45,45h30c24.813,0,45-20.187,45-45v-75H196z M286,467c0,8.271-6.729,15-15,15h-30
			c-8.271,0-15-6.729-15-15v-45h60V467z"/>
	</g>
</g>
<g>
	<g>
		<path d="M271,0h-30c-24.813,0-45,20.187-45,45v75h120V45C316,20.187,295.813,0,271,0z M286,90h-60V45c0-8.271,6.729-15,15-15h30
			c8.271,0,15,6.729,15,15V90z"/>
	</g>
</g>
<g>
</g>
<g>
</g>
<g>
</g>
<g>
</g>
<g>
</g>
<g>
</g>
<g>
</g>
<g>
</g>
<g>
</g>
<g>
</g>
<g>
</g>
<g>
</g>
<g>
</g>
<g>
</g>
<g>
</g>
</svg>
