<?xml version="1.0" encoding="iso-8859-1"?>
<!-- Generator: Adobe Illustrator 19.0.0, SVG Export Plug-In . SVG Version: 6.00 Build 0)  -->
<svg version="1.1" id="Capa_1" xmlns="http://www.w3.org/2000/svg" xmlns:xlink="http://www.w3.org/1999/xlink" x="0px" y="0px"
	 viewBox="0 0 512 512" style="enable-background:new 0 0 512 512;" xml:space="preserve">
<g>
	<g>
		<path d="M81,0v136.712l11.362,2.84c15.073,3.768,30.27,6.986,45.551,9.693l-37.508,168.787
			c-10.544,47.445,0.852,96.4,31.263,134.312C162.08,490.256,207.397,512,256,512c48.603,0,93.92-21.744,124.332-59.656
			c30.411-37.912,41.807-86.867,31.263-134.312l-37.508-168.787c15.281-2.707,30.478-5.925,45.551-9.693l11.362-2.84V0H81z
			 M382.31,324.541c8.559,38.515-0.691,78.255-25.379,109.032C332.242,464.349,295.455,482,256,482
			c-39.455,0-76.242-17.651-100.931-48.427c-24.688-30.776-33.938-70.517-25.379-109.032l37.936-170.713
			c29.301,3.852,58.836,5.797,88.374,5.797c29.538,0,59.073-1.945,88.374-5.797L382.31,324.541z M401,113.178
			c-95.123,21.936-194.877,21.936-290,0V30h290V113.178z"/>
	</g>
</g>
<g>
	<g>
		<path d="M324.281,256.919C306.268,234.401,282.018,222,256,222s-50.268,12.401-68.281,34.919C170.489,278.456,161,306.896,161,337
			s9.489,58.544,26.719,80.081C205.732,439.599,229.982,452,256,452s50.268-12.401,68.281-34.919
			C341.511,395.544,351,367.104,351,337S341.511,278.456,324.281,256.919z M256,422c-35.841,0-65-38.131-65-85
			c0-46.869,29.159-85,65-85s65,38.131,65,85C321,383.869,291.841,422,256,422z"/>
	</g>
</g>
<g>
	<g>
		<circle cx="256" cy="80" r="20"/>
	</g>
</g>
<g>
</g>
<g>
</g>
<g>
</g>
<g>
</g>
<g>
</g>
<g>
</g>
<g>
</g>
<g>
</g>
<g>
</g>
<g>
</g>
<g>
</g>
<g>
</g>
<g>
</g>
<g>
</g>
<g>
</g>
</svg>
