<?xml version="1.0" encoding="iso-8859-1"?>
<!-- Generator: Adobe Illustrator 19.0.0, SVG Export Plug-In . SVG Version: 6.00 Build 0)  -->
<svg version="1.1" id="Capa_1" xmlns="http://www.w3.org/2000/svg" xmlns:xlink="http://www.w3.org/1999/xlink" x="0px" y="0px"
	 viewBox="0 0 512 512" style="enable-background:new 0 0 512 512;" xml:space="preserve">
<g>
	<g>
		<path d="M421,114.938V0H91v114.938C33.057,157.832,0,220.127,0,287c0,60.495,26.896,117.246,75.733,159.801
			C123.983,488.845,188.003,512,256,512s132.017-23.155,180.267-65.199C485.104,404.246,512,347.495,512,287
			C512,220.127,478.943,157.832,421,114.938z M121,30h270v76H121V30z M256,482c-124.617,0-226-87.477-226-195
			c0-58.796,30.271-113.729,83.098-151h285.803C451.729,173.271,482,228.204,482,287C482,394.523,380.617,482,256,482z"/>
	</g>
</g>
<g>
	<g>
		<circle cx="256" cy="196" r="30"/>
	</g>
</g>
<g>
	<g>
		<circle cx="256" cy="306" r="20"/>
	</g>
</g>
<g>
	<g>
		<circle cx="256" cy="406" r="20"/>
	</g>
</g>
<g>
	<g>
		<circle cx="351" cy="306" r="20"/>
	</g>
</g>
<g>
	<g>
		<circle cx="436" cy="306" r="20"/>
	</g>
</g>
<g>
	<g>
		<circle cx="351" cy="206" r="20"/>
	</g>
</g>
<g>
	<g>
		<circle cx="351" cy="406" r="20"/>
	</g>
</g>
<g>
	<g>
		<circle cx="161" cy="306" r="20"/>
	</g>
</g>
<g>
	<g>
		<circle cx="76" cy="306" r="20"/>
	</g>
</g>
<g>
	<g>
		<circle cx="161" cy="206" r="20"/>
	</g>
</g>
<g>
	<g>
		<circle cx="161" cy="406" r="20"/>
	</g>
</g>
<g>
</g>
<g>
</g>
<g>
</g>
<g>
</g>
<g>
</g>
<g>
</g>
<g>
</g>
<g>
</g>
<g>
</g>
<g>
</g>
<g>
</g>
<g>
</g>
<g>
</g>
<g>
</g>
<g>
</g>
</svg>
