<?xml version="1.0" encoding="iso-8859-1"?>
<!-- Generator: Adobe Illustrator 19.0.0, SVG Export Plug-In . SVG Version: 6.00 Build 0)  -->
<svg version="1.1" id="Capa_1" xmlns="http://www.w3.org/2000/svg" xmlns:xlink="http://www.w3.org/1999/xlink" x="0px" y="0px"
	 viewBox="0 0 512 512" style="enable-background:new 0 0 512 512;" xml:space="preserve">
<g>
	<g>
		<path d="M81,0v337c0,96.495,78.505,175,175,175s175-78.505,175-175V0H81z M401,337c0,79.953-65.047,145-145,145
			s-145-65.047-145-145V30h290V337z"/>
	</g>
</g>
<g>
	<g>
		<path d="M326,90h-41.714c1.106-3.128,1.714-6.493,1.714-10c0-16.569-13.431-30-30-30c-16.569,0-30,13.431-30,30
			c0,3.507,0.608,6.872,1.714,10H186c-24.813,0-45,20.187-45,45v202c0,63.411,51.589,115,115,115s115-51.589,115-115V135
			C371,110.187,350.813,90,326,90z M341,337c0,46.869-38.131,85-85,85c-46.869,0-85-38.131-85-85V135c0-8.271,6.729-15,15-15h55v40
			h30v-40h55c8.271,0,15,6.729,15,15V337z"/>
	</g>
</g>
<g>
</g>
<g>
</g>
<g>
</g>
<g>
</g>
<g>
</g>
<g>
</g>
<g>
</g>
<g>
</g>
<g>
</g>
<g>
</g>
<g>
</g>
<g>
</g>
<g>
</g>
<g>
</g>
<g>
</g>
</svg>
