<?xml version="1.0" encoding="iso-8859-1"?>
<!-- Generator: Adobe Illustrator 19.0.0, SVG Export Plug-In . SVG Version: 6.00 Build 0)  -->
<svg version="1.1" id="Capa_1" xmlns="http://www.w3.org/2000/svg" xmlns:xlink="http://www.w3.org/1999/xlink" x="0px" y="0px"
	 viewBox="0 0 512 512" style="enable-background:new 0 0 512 512;" xml:space="preserve">
<g>
	<g>
		<path d="M0,0v512h512V0H0z M482,482H30V30h452V482z"/>
	</g>
</g>
<g>
	<g>
		<path d="M377,120h-78.58c1.665-4.695,2.58-9.742,2.58-15c0-24.813-20.187-45-45-45s-45,20.187-45,45c0,5.258,0.915,10.305,2.58,15
			H135c-41.355,0-75,33.645-75,75v172c0,41.355,33.645,75,75,75h242c41.355,0,75-33.645,75-75V195C452,153.645,418.355,120,377,120z
			 M256,90c8.271,0,15,6.729,15,15s-6.729,15-15,15s-15-6.729-15-15S247.729,90,256,90z M422,367c0,24.813-20.187,45-45,45H135
			c-24.813,0-45-20.187-45-45V195c0-24.813,20.187-45,45-45h106v56h30v-56h106c24.813,0,45,20.187,45,45V367z"/>
	</g>
</g>
<g>
	<g>
		<circle cx="256" cy="256" r="20"/>
	</g>
</g>
<g>
</g>
<g>
</g>
<g>
</g>
<g>
</g>
<g>
</g>
<g>
</g>
<g>
</g>
<g>
</g>
<g>
</g>
<g>
</g>
<g>
</g>
<g>
</g>
<g>
</g>
<g>
</g>
<g>
</g>
</svg>
