<?xml version="1.0" encoding="iso-8859-1"?>
<!-- Generator: Adobe Illustrator 19.0.0, SVG Export Plug-In . SVG Version: 6.00 Build 0)  -->
<svg version="1.1" id="Capa_1" xmlns="http://www.w3.org/2000/svg" xmlns:xlink="http://www.w3.org/1999/xlink" x="0px" y="0px"
	 viewBox="0 0 512 512" style="enable-background:new 0 0 512 512;" xml:space="preserve">
<g>
	<g>
		<path d="M334.699,186l7.831-35.238c2.978-13.395-0.239-27.216-8.825-37.919C325.119,102.14,312.323,96,298.602,96h-85.203
			c-13.722,0-26.516,6.139-35.102,16.842s-11.803,24.525-8.826,37.919l7.83,35.239H0v230h512V186H334.699z M271,126h27.602
			c4.574,0,8.838,2.046,11.701,5.614c2.861,3.568,3.934,8.174,2.941,12.64L303.968,186H271V126z M201.697,131.614
			c2.862-3.568,7.126-5.614,11.701-5.614H241v60h-32.967l-9.278-41.746C197.763,139.789,198.835,135.182,201.697,131.614z M482,386
			H30V216h452V386z"/>
	</g>
</g>
<g>
</g>
<g>
</g>
<g>
</g>
<g>
</g>
<g>
</g>
<g>
</g>
<g>
</g>
<g>
</g>
<g>
</g>
<g>
</g>
<g>
</g>
<g>
</g>
<g>
</g>
<g>
</g>
<g>
</g>
</svg>
