<?xml version="1.0" encoding="iso-8859-1"?>
<!-- Generator: Adobe Illustrator 19.0.0, SVG Export Plug-In . SVG Version: 6.00 Build 0)  -->
<svg version="1.1" id="Capa_1" xmlns="http://www.w3.org/2000/svg" xmlns:xlink="http://www.w3.org/1999/xlink" x="0px" y="0px"
	 viewBox="0 0 512 512" style="enable-background:new 0 0 512 512;" xml:space="preserve">
<g>
	<g>
		<path d="M417,266.5c-28.706,0-55.677,12.948-73.65,35H292v45H65.977c-0.424-0.732-0.876-1.445-1.358-2.136l21.207-45.159
			c12.328,4.079,25.497,6.294,39.174,6.294c68.925,0,125-56.075,125-125s-56.075-125-125-125S0,111.576,0,180.5
			c0,44.583,23.466,83.782,58.69,105.914l-21.227,45.2C22.083,332.904,10,345.787,10,361.5c0,16.569,13.431,30,30,30
			c11.102,0,20.789-6.036,25.977-15H292v45h51.35c17.973,22.052,44.944,35,73.65,35c52.383,0,95-42.617,95-95
			S469.383,266.5,417,266.5z M30,180.5c0-52.383,42.617-95,95-95s95,42.617,95,95s-42.617,95-95,95
			c-9.122,0-17.945-1.296-26.301-3.707l39.878-84.917l-27.154-12.752l-39.861,84.88C46.491,241.884,30,213.083,30,180.5z M417,426.5
			c-21.514,0-41.607-10.635-53.75-28.449l-4.466-6.551H322v-60h36.784l4.466-6.551C375.393,307.135,395.486,296.5,417,296.5
			c35.841,0,65,29.159,65,65S452.841,426.5,417,426.5z"/>
	</g>
</g>
<g>
</g>
<g>
</g>
<g>
</g>
<g>
</g>
<g>
</g>
<g>
</g>
<g>
</g>
<g>
</g>
<g>
</g>
<g>
</g>
<g>
</g>
<g>
</g>
<g>
</g>
<g>
</g>
<g>
</g>
</svg>
