<?xml version="1.0" encoding="iso-8859-1"?>
<!-- Generator: Adobe Illustrator 19.0.0, SVG Export Plug-In . SVG Version: 6.00 Build 0)  -->
<svg version="1.1" id="Capa_1" xmlns="http://www.w3.org/2000/svg" xmlns:xlink="http://www.w3.org/1999/xlink" x="0px" y="0px"
	 viewBox="0 0 512 512" style="enable-background:new 0 0 512 512;" xml:space="preserve">
<g>
	<g>
		<path d="M493.788,214.492c-8.401-7.73-18.938-12.656-30.077-14.286c-4.828-18.09-12.007-35.423-21.385-51.628
			c6.723-9.029,10.692-19.963,11.167-31.368c0.653-15.715-5.351-31.107-16.473-42.229c-11.122-11.122-26.518-17.122-42.229-16.472
			c-11.405,0.475-22.339,4.444-31.367,11.167c-16.206-9.379-33.539-16.558-51.63-21.386c-1.63-11.138-6.555-21.677-14.285-30.077
			C286.858,6.638,271.729,0,256,0s-30.858,6.638-41.508,18.213c-7.729,8.4-12.654,18.938-14.285,30.077
			c-18.091,4.827-35.424,12.007-51.63,21.386c-9.029-6.723-19.963-10.692-31.368-11.167C101.494,57.86,86.102,63.86,74.98,74.981
			c-11.122,11.122-17.126,26.514-16.473,42.229c0.474,11.405,4.444,22.339,11.167,31.368c-9.378,16.205-16.558,33.538-21.385,51.628
			c-11.141,1.63-21.677,6.557-30.078,14.287C6.638,225.143,0,240.271,0,256s6.638,30.858,18.213,41.508
			c8.4,7.729,18.938,12.655,30.077,14.285c4.828,18.091,12.007,35.424,21.385,51.629c-6.723,9.029-10.692,19.963-11.167,31.369
			c-0.653,15.715,5.351,31.107,16.472,42.229c11.122,11.122,26.512,17.122,42.229,16.473c11.405-0.475,22.339-4.444,31.368-11.167
			c16.206,9.379,33.539,16.559,51.63,21.386c1.63,11.138,6.555,21.677,14.285,30.077C225.142,505.362,240.271,512,256,512
			s30.858-6.638,41.508-18.213c7.729-8.4,12.654-18.938,14.285-30.077c18.091-4.827,35.424-12.007,51.63-21.386
			c9.029,6.723,19.963,10.692,31.368,11.167c15.722,0.653,31.107-5.35,42.229-16.473c11.122-11.122,17.126-26.514,16.472-42.229
			c-0.474-11.405-4.444-22.339-11.167-31.368c9.379-16.207,16.559-33.541,21.386-51.632c11.138-1.631,21.676-6.554,30.076-14.283
			C505.362,286.858,512,271.729,512,256S505.362,225.143,493.788,214.492z M310.696,79.274c10.995,3.408,21.555,7.811,31.572,13.112
			l-36.233,42.82L310.696,79.274z M201.304,79.273l4.661,55.932l-36.232-42.82C179.75,87.084,190.31,82.681,201.304,79.273z
			 M201.304,432.727c-10.995-3.408-21.555-7.812-31.571-13.112l36.232-42.82L201.304,432.727z M310.696,432.727l-4.661-55.932
			l36.233,42.82C332.251,424.915,321.691,429.319,310.696,432.727z M473.474,275.432c-5.498,5.059-12.625,7.507-20.072,6.883
			L325.13,271.626l-4.216,10.566c-0.193,0.484-0.384,0.968-0.589,1.446l-4.386,10.202l98.253,83.136
			c5.704,4.827,9.016,11.596,9.326,19.061c0.311,7.465-2.428,14.486-7.712,19.769c-5.283,5.283-12.302,8.01-19.769,7.711
			c-7.465-0.311-14.234-3.623-19.061-9.326l-83.139-98.255l-10.204,4.39c-0.473,0.203-0.953,0.393-1.433,0.583l-10.576,4.22
			L282.313,453.4c0.621,7.446-1.824,14.575-6.883,20.073C270.373,478.972,263.472,482,256,482s-14.373-3.028-19.432-8.526
			c-5.059-5.499-7.503-12.627-6.883-20.073l10.689-128.271l-10.576-4.22c-0.479-0.191-0.959-0.38-1.433-0.583l-10.204-4.39
			l-83.138,98.255c-4.827,5.704-11.596,9.016-19.061,9.326c-7.468,0.306-14.486-2.429-19.769-7.712s-8.022-12.304-7.711-19.769
			c0.311-7.465,3.623-14.234,9.326-19.061l98.253-83.136l-4.386-10.202c-0.206-0.478-0.396-0.962-0.589-1.446l-4.216-10.566
			L58.599,282.314c-7.452,0.624-14.574-1.824-20.073-6.883C33.028,270.373,30,263.472,30,256c0-7.471,3.028-14.372,8.526-19.432
			c5.499-5.059,12.622-7.506,20.073-6.883l128.271,10.689l4.22-10.576c0.191-0.479,0.38-0.959,0.583-1.433l4.39-10.204
			l-98.255-83.138c-5.704-4.827-9.016-11.596-9.326-19.061c-0.311-7.465,2.428-14.486,7.711-19.769s12.303-8.031,19.77-7.711
			c7.465,0.31,14.234,3.623,19.061,9.326l83.138,98.254l10.204-4.39c0.456-0.196,0.919-0.378,1.381-0.563l10.627-4.248
			L229.686,58.599c-0.621-7.446,1.824-14.575,6.883-20.073C241.627,33.028,248.528,30,256,30s14.373,3.028,19.432,8.526
			c5.059,5.499,7.503,12.627,6.883,20.073l-10.688,128.264l10.627,4.248c0.462,0.185,0.925,0.367,1.381,0.563l10.204,4.39
			l83.139-98.254c4.826-5.704,11.594-9.016,19.06-9.326c7.456-0.307,14.486,2.428,19.77,7.711
			c5.283,5.283,8.021,12.304,7.711,19.769c-0.31,7.465-3.623,14.235-9.326,19.061l-98.255,83.138l4.39,10.204
			c0.203,0.473,0.393,0.953,0.583,1.433l4.22,10.576l128.272-10.689c7.444-0.622,14.574,1.824,20.073,6.883
			C478.972,241.627,482,248.528,482,256S478.972,270.373,473.474,275.432z M432.726,310.696
			c-3.407,10.994-7.811,21.554-13.111,31.571l-42.82-36.232L432.726,310.696z M79.274,310.696l55.931-4.661l-42.82,36.232
			C87.085,332.25,82.681,321.691,79.274,310.696z M79.274,201.304c3.408-10.995,7.811-21.554,13.111-31.571l42.82,36.232
			L79.274,201.304z M432.726,201.304l-55.931,4.661l42.82-36.232C424.915,179.75,429.319,190.309,432.726,201.304z"/>
	</g>
</g>
<g>
</g>
<g>
</g>
<g>
</g>
<g>
</g>
<g>
</g>
<g>
</g>
<g>
</g>
<g>
</g>
<g>
</g>
<g>
</g>
<g>
</g>
<g>
</g>
<g>
</g>
<g>
</g>
<g>
</g>
</svg>
