<?xml version="1.0" encoding="iso-8859-1"?>
<!-- Generator: Adobe Illustrator 19.0.0, SVG Export Plug-In . SVG Version: 6.00 Build 0)  -->
<svg version="1.1" id="Capa_1" xmlns="http://www.w3.org/2000/svg" xmlns:xlink="http://www.w3.org/1999/xlink" x="0px" y="0px"
	 viewBox="0 0 512 512" style="enable-background:new 0 0 512 512;" xml:space="preserve">
<g>
	<g>
		<path d="M333.703,32.843C325.117,22.14,312.323,16,298.602,16h-85.203c-13.722,0-26.516,6.139-35.102,16.842
			s-11.803,24.525-8.826,37.919L183.967,136h144.065l14.497-65.238C345.506,57.367,342.289,43.546,333.703,32.843z M241,106h-32.967
			l-9.277-41.746c-0.993-4.465,0.079-9.072,2.942-12.64c2.862-3.568,7.126-5.614,11.7-5.614H241V106z M313.244,64.254L303.967,106
			H271V46h27.602c4.574,0,8.838,2.046,11.7,5.614S314.237,59.789,313.244,64.254z"/>
	</g>
</g>
<g>
	<g>
		<rect x="156" y="166" width="200" height="30"/>
	</g>
</g>
<g>
	<g>
		<rect x="66" y="226" width="380" height="30"/>
	</g>
</g>
<g>
	<g>
		<rect y="286" width="512" height="30"/>
	</g>
</g>
<g>
	<g>
		<rect y="346" width="512" height="30"/>
	</g>
</g>
<g>
	<g>
		<rect x="66" y="406" width="380" height="30"/>
	</g>
</g>
<g>
	<g>
		<rect x="156" y="466" width="200" height="30"/>
	</g>
</g>
<g>
</g>
<g>
</g>
<g>
</g>
<g>
</g>
<g>
</g>
<g>
</g>
<g>
</g>
<g>
</g>
<g>
</g>
<g>
</g>
<g>
</g>
<g>
</g>
<g>
</g>
<g>
</g>
<g>
</g>
</svg>
