<?xml version="1.0" encoding="iso-8859-1"?>
<!-- Generator: Adobe Illustrator 19.0.0, SVG Export Plug-In . SVG Version: 6.00 Build 0)  -->
<svg version="1.1" id="Capa_1" xmlns="http://www.w3.org/2000/svg" xmlns:xlink="http://www.w3.org/1999/xlink" x="0px" y="0px"
	 viewBox="0 0 512 512" style="enable-background:new 0 0 512 512;" xml:space="preserve">
<g>
	<g>
		<path d="M477.681,277.819c-21.996-52.05-53.489-98.781-93.604-138.896S297.23,67.315,245.181,45.319
			C195.869,24.481,143.736,13.049,90,11.256V11H0v450h45h45V41.27c49.699,1.779,97.905,12.414,143.502,31.683
			c48.471,20.483,91.994,49.816,129.361,87.183c37.367,37.367,66.7,80.891,87.184,129.361C471.249,339.669,482,392.998,482,448h30
			C512,388.964,500.453,331.707,477.681,277.819z M60,431H30V41h30V431z"/>
	</g>
</g>
<g>
	<g>
		<circle cx="45" cy="481" r="20"/>
	</g>
</g>
<g>
</g>
<g>
</g>
<g>
</g>
<g>
</g>
<g>
</g>
<g>
</g>
<g>
</g>
<g>
</g>
<g>
</g>
<g>
</g>
<g>
</g>
<g>
</g>
<g>
</g>
<g>
</g>
<g>
</g>
</svg>
