<?xml version="1.0" encoding="iso-8859-1"?>
<!-- Generator: Adobe Illustrator 19.0.0, SVG Export Plug-In . SVG Version: 6.00 Build 0)  -->
<svg version="1.1" id="Capa_1" xmlns="http://www.w3.org/2000/svg" xmlns:xlink="http://www.w3.org/1999/xlink" x="0px" y="0px"
	 viewBox="0 0 512 512" style="enable-background:new 0 0 512 512;" xml:space="preserve">
<g>
	<g>
		<path d="M408.973,176l-60,90H163.027l-60-90H0v220h512V176H408.973z M482,366H30V206h56.973l60,90h218.055l60-90H482V366z"/>
	</g>
</g>
<g>
	<g>
		<path d="M321,116H191c-24.813,0-45,20.187-45,45v40h30v-40c0-8.271,6.729-15,15-15h15v90h100v-90h15c8.271,0,15,6.729,15,15v40h30
			v-40C366,136.187,345.813,116,321,116z M276,206h-40v-60h40V206z"/>
	</g>
</g>
<g>
</g>
<g>
</g>
<g>
</g>
<g>
</g>
<g>
</g>
<g>
</g>
<g>
</g>
<g>
</g>
<g>
</g>
<g>
</g>
<g>
</g>
<g>
</g>
<g>
</g>
<g>
</g>
<g>
</g>
</svg>
