<?xml version="1.0" encoding="iso-8859-1"?>
<!-- Generator: Adobe Illustrator 19.0.0, SVG Export Plug-In . SVG Version: 6.00 Build 0)  -->
<svg version="1.1" id="Capa_1" xmlns="http://www.w3.org/2000/svg" xmlns:xlink="http://www.w3.org/1999/xlink" x="0px" y="0px"
	 viewBox="0 0 512 512" style="enable-background:new 0 0 512 512;" xml:space="preserve">
<g>
	<g>
		<path d="M426.891,193.464C426.957,192.651,427,191.83,427,191c0-16.569-13.431-30-30-30c-16.569,0-30,13.431-30,30
			c0,0.831,0.043,1.651,0.109,2.464C317.568,201.843,282,230.712,282,266c0,42.056,50.514,75,115,75s115-32.944,115-75
			C512,230.712,476.432,201.843,426.891,193.464z M459.993,295.564C443.644,305.374,420.684,311,397,311
			c-23.684,0-46.644-5.626-62.993-15.436C314.859,284.075,312,272.11,312,266s2.859-18.075,22.007-29.564
			c12.861-7.717,29.817-12.829,47.993-14.667V251h30v-29.23c18.176,1.837,35.132,6.95,47.993,14.667
			C479.141,247.925,482,259.89,482,266S479.141,284.075,459.993,295.564z"/>
	</g>
</g>
<g>
	<g>
		<path d="M144.891,193.464C144.957,192.651,145,191.83,145,191c0-16.569-13.431-30-30-30c-16.569,0-30,13.431-30,30
			c0,0.831,0.043,1.651,0.109,2.464C35.568,201.843,0,230.712,0,266c0,42.056,50.514,75,115,75s115-32.944,115-75
			C230,230.712,194.432,201.843,144.891,193.464z M177.993,295.564C161.644,305.374,138.684,311,115,311
			s-46.644-5.626-62.993-15.436C32.859,284.075,30,272.11,30,266s2.859-18.075,22.007-29.564
			c12.861-7.717,29.817-12.829,47.993-14.667V251h30v-29.23c18.176,1.837,35.132,6.95,47.993,14.667
			C197.141,247.925,200,259.89,200,266S197.141,284.075,177.993,295.564z"/>
	</g>
</g>
<g>
	<g>
		<rect y="371" width="512" height="30"/>
	</g>
</g>
<g>
	<g>
		<rect y="111" width="512" height="30"/>
	</g>
</g>
<g>
</g>
<g>
</g>
<g>
</g>
<g>
</g>
<g>
</g>
<g>
</g>
<g>
</g>
<g>
</g>
<g>
</g>
<g>
</g>
<g>
</g>
<g>
</g>
<g>
</g>
<g>
</g>
<g>
</g>
</svg>
