<?xml version="1.0" encoding="iso-8859-1"?>
<!-- Generator: Adobe Illustrator 19.0.0, SVG Export Plug-In . SVG Version: 6.00 Build 0)  -->
<svg version="1.1" id="Capa_1" xmlns="http://www.w3.org/2000/svg" xmlns:xlink="http://www.w3.org/1999/xlink" x="0px" y="0px"
	 viewBox="0 0 512 512" style="enable-background:new 0 0 512 512;" xml:space="preserve">
<g>
	<g>
		<path d="M422.993,142.117c-39.485-9.83-79.787-16.088-120.313-18.812C288.208,115.243,272.396,111,256,111
			s-32.208,4.243-46.679,12.305c-40.527,2.724-80.829,8.982-120.315,18.812C36.601,155.165,0,201.995,0,256
			s36.601,100.835,89.007,113.883c39.485,9.83,79.787,16.088,120.314,18.813C223.792,396.757,239.604,401,256,401
			s32.208-4.243,46.679-12.305c40.527-2.725,80.83-8.982,120.315-18.813C475.399,356.835,512,310.005,512,256
			S475.399,155.165,422.993,142.117z M96.254,340.771C57.244,331.059,30,296.2,30,256s27.245-75.059,66.255-84.771
			c24.89-6.197,50.121-10.902,75.528-14.144C151.916,183.976,141,218.981,141,256s10.916,72.024,30.783,98.915
			C146.376,351.674,121.145,346.968,96.254,340.771z M256,371c-46.869,0-85-51.589-85-115s38.131-115,85-115s85,51.589,85,115
			S302.869,371,256,371z M415.746,340.771c-24.891,6.197-50.122,10.902-75.529,14.144C360.084,328.024,371,293.019,371,256
			c0-37.019-10.916-72.024-30.783-98.915c25.407,3.241,50.638,7.947,75.529,14.144C454.756,180.941,482,215.8,482,256
			S454.756,331.059,415.746,340.771z"/>
	</g>
</g>
<g>
</g>
<g>
</g>
<g>
</g>
<g>
</g>
<g>
</g>
<g>
</g>
<g>
</g>
<g>
</g>
<g>
</g>
<g>
</g>
<g>
</g>
<g>
</g>
<g>
</g>
<g>
</g>
<g>
</g>
</svg>
