<?xml version="1.0" encoding="iso-8859-1"?>
<!-- Generator: Adobe Illustrator 19.0.0, SVG Export Plug-In . SVG Version: 6.00 Build 0)  -->
<svg version="1.1" id="Capa_1" xmlns="http://www.w3.org/2000/svg" xmlns:xlink="http://www.w3.org/1999/xlink" x="0px" y="0px"
	 viewBox="0 0 512 512" style="enable-background:new 0 0 512 512;" xml:space="preserve">
<g>
	<g>
		<path d="M0,141v230h512V141H0z M482,341H30V171h452V341z"/>
	</g>
</g>
<g>
	<g>
		<path d="M456.627,220.989c-4.752-7.239-4.619-25.221-20.606-34.271C421.281,178.375,405.375,186,396,186
			s-25.281-7.625-40.021,0.718c-15.988,9.05-15.854,27.032-20.606,34.271c-2.066,3.147-5.76,7.007-9.373,11.572
			c-3.613-4.565-7.307-8.425-9.373-11.572c-4.752-7.239-4.619-25.221-20.606-34.271C281.281,178.375,265.375,186,256,186
			s-25.281-7.625-40.021,0.718c-15.988,9.05-15.854,27.032-20.606,34.271c-2.066,3.147-5.76,7.007-9.373,11.572
			c-3.613-4.565-7.307-8.425-9.373-11.572c-4.752-7.239-4.619-25.221-20.606-34.271C141.281,178.375,125.375,186,116,186
			s-25.281-7.625-40.021,0.718c-15.988,9.05-15.854,27.032-20.606,34.271C50.402,228.562,36,240.25,36,256
			c0,15.167,15.5,28.167,19.374,35.012c5.603,9.9,5.793,24.655,20.607,34.27C89.164,333.838,106.676,326,116,326
			s26.836,7.838,40.019-0.718c14.815-9.616,15.004-24.371,20.607-34.271c1.678-2.965,5.538-7.087,9.374-12.038
			c3.836,4.951,7.696,9.072,9.374,12.038c5.603,9.9,5.793,24.655,20.607,34.271C229.164,333.838,246.676,326,256,326
			c9.324,0,26.836,7.838,40.019-0.718c14.815-9.616,15.004-24.371,20.607-34.271c1.678-2.965,5.538-7.087,9.374-12.038
			c3.836,4.951,7.696,9.072,9.374,12.038c5.603,9.9,5.793,24.655,20.607,34.271C369.164,333.838,386.676,326,396,326
			c9.324,0,26.836,7.838,40.019-0.718c14.815-9.616,15.004-24.371,20.607-34.271C460.5,284.167,476,271.167,476,256
			C476,240.25,461.598,228.562,456.627,220.989z M150.658,275.988c-2.634,4.554-8.395,21.829-9.637,23.25
			C139.166,299.535,121.417,296,116,296s-23.166,3.535-25.021,3.24c-1.242-1.422-7.003-18.696-9.637-23.25
			c-2.57-4.442-15.059-18.319-15.338-19.989c0.279-1.671,12.767-15.548,15.337-19.989c2.635-4.555,8.396-21.829,9.638-23.251
			C92.836,212.465,110.583,216,116,216s23.164-3.535,25.021-3.24c1.241,1.422,7.003,18.696,9.638,23.251
			c2.569,4.441,15.058,18.318,15.337,19.988C165.717,257.669,153.228,271.546,150.658,275.988z M290.658,275.989
			c-2.634,4.554-8.395,21.829-9.637,23.25C279.166,299.535,261.417,296,256,296s-23.166,3.535-25.021,3.24
			c-1.242-1.422-7.003-18.696-9.637-23.25c-2.57-4.442-15.059-18.319-15.338-19.989c0.279-1.671,12.767-15.548,15.337-19.989
			c2.635-4.555,8.396-21.829,9.638-23.251c1.857-0.295,19.604,3.24,25.021,3.24s23.164-3.535,25.021-3.24
			c1.241,1.422,7.003,18.696,9.638,23.251c2.569,4.441,15.058,18.318,15.337,19.988C305.717,257.67,293.228,271.547,290.658,275.989
			z M430.658,275.989c-2.634,4.554-8.395,21.829-9.637,23.25C419.166,299.535,401.417,296,396,296s-23.166,3.535-25.021,3.24
			c-1.242-1.422-7.003-18.696-9.637-23.25c-2.57-4.442-15.059-18.319-15.338-19.989c0.279-1.671,12.767-15.548,15.337-19.989
			c2.635-4.555,8.396-21.829,9.638-23.251c1.857-0.295,19.604,3.24,25.021,3.24s23.164-3.535,25.021-3.24
			c1.241,1.422,7.003,18.696,9.638,23.251c2.569,4.441,15.058,18.318,15.337,19.988C445.717,257.67,433.228,271.547,430.658,275.989
			z"/>
	</g>
</g>
<g>
</g>
<g>
</g>
<g>
</g>
<g>
</g>
<g>
</g>
<g>
</g>
<g>
</g>
<g>
</g>
<g>
</g>
<g>
</g>
<g>
</g>
<g>
</g>
<g>
</g>
<g>
</g>
<g>
</g>
</svg>
