<?xml version="1.0" encoding="iso-8859-1"?>
<!-- Generator: Adobe Illustrator 19.0.0, SVG Export Plug-In . SVG Version: 6.00 Build 0)  -->
<svg version="1.1" id="Capa_1" xmlns="http://www.w3.org/2000/svg" xmlns:xlink="http://www.w3.org/1999/xlink" x="0px" y="0px"
	 viewBox="0 0 512 512" style="enable-background:new 0 0 512 512;" xml:space="preserve">
<g>
	<g>
		<path d="M477,98.332v0.692c-61.002,4.455-117.716,30.318-161.353,73.956C288.7,199.926,268.536,231.863,256,266.715
			c-12.536-34.852-32.7-66.788-59.647-93.735C152.716,129.342,96.002,103.478,35,99.024v-0.692H5v255h30v-224.2
			c52.979,4.392,102.173,27.094,140.14,65.06c42.47,42.472,65.86,98.988,65.86,159.14h30c0-60.152,23.39-116.668,65.86-159.14
			c37.967-37.966,87.161-60.668,140.14-65.06v224.2h30v-255H477z"/>
	</g>
</g>
<g>
	<g>
		<circle cx="20" cy="393.668" r="20"/>
	</g>
</g>
<g>
	<g>
		<circle cx="492" cy="393.668" r="20"/>
	</g>
</g>
<g>
</g>
<g>
</g>
<g>
</g>
<g>
</g>
<g>
</g>
<g>
</g>
<g>
</g>
<g>
</g>
<g>
</g>
<g>
</g>
<g>
</g>
<g>
</g>
<g>
</g>
<g>
</g>
<g>
</g>
</svg>
