<?xml version="1.0" encoding="iso-8859-1"?>
<!-- Generator: Adobe Illustrator 19.0.0, SVG Export Plug-In . SVG Version: 6.00 Build 0)  -->
<svg version="1.1" id="Capa_1" xmlns="http://www.w3.org/2000/svg" xmlns:xlink="http://www.w3.org/1999/xlink" x="0px" y="0px"
	 viewBox="0 0 512 512" style="enable-background:new 0 0 512 512;" xml:space="preserve">
<g>
	<g>
		<path d="M301,422v-60h-30v-62h30v30h30v-60h-60v-60h30v-61.509c34.192-6.968,60-37.271,60-73.491V0h-30v75
			c0,19.555-12.541,36.228-30,42.42V60h-90v57.42c-17.459-6.192-30-22.865-30-42.42V0h-30v75c0,36.219,25.808,66.522,60,73.491V210
			h30v60h-30v-30h-30v60h60v62h-30v60h-90v30h60v60h150v-60h60v-30H301z M241,90h30v90h-30V90z M301,482h-90v-30h30v-60h30v60h30
			V482z"/>
	</g>
</g>
<g>
</g>
<g>
</g>
<g>
</g>
<g>
</g>
<g>
</g>
<g>
</g>
<g>
</g>
<g>
</g>
<g>
</g>
<g>
</g>
<g>
</g>
<g>
</g>
<g>
</g>
<g>
</g>
<g>
</g>
</svg>
